<?xml version="1.0" encoding="UTF-8" standalone="no"?>
<svg
   version="1.0"
   width="253.99969mm"
   height="124.85504mm"
   id="svg74"
   sodipodi:docname="project2-ack-state.svg"
   inkscape:version="1.3 (0e150ed6c4, 2023-07-21)"
   xmlns:inkscape="http://www.inkscape.org/namespaces/inkscape"
   xmlns:sodipodi="http://sodipodi.sourceforge.net/DTD/sodipodi-0.dtd"
   xmlns="http://www.w3.org/2000/svg"
   xmlns:svg="http://www.w3.org/2000/svg">
  <sodipodi:namedview
     id="namedview74"
     pagecolor="#ffffff"
     bordercolor="#000000"
     borderopacity="0.25"
     inkscape:showpageshadow="2"
     inkscape:pageopacity="0.0"
     inkscape:pagecheckerboard="0"
     inkscape:deskcolor="#d1d1d1"
     inkscape:document-units="mm"
     inkscape:zoom="0.59227512"
     inkscape:cx="503.14455"
     inkscape:cy="234.68823"
     inkscape:window-width="1280"
     inkscape:window-height="668"
     inkscape:window-x="-6"
     inkscape:window-y="-6"
     inkscape:window-maximized="1"
     inkscape:current-layer="svg74" />
  <defs
     id="defs1">
    <pattern
       id="EMFhbasepattern"
       patternUnits="userSpaceOnUse"
       width="6"
       height="6"
       x="0"
       y="0" />
  </defs>
  <path
     style="fill:#000000;fill-opacity:1;fill-rule:nonzero;stroke:#000000;stroke-width:0.0200405px;stroke-linecap:butt;stroke-linejoin:round;stroke-miterlimit:4;stroke-dasharray:none;stroke-opacity:1"
     d="m 375.95932,35.32134 0.60121,-3.40689 0.80162,-3.00607 0.92186,-2.80566 1.04211,-2.62531 1.16234,-2.46497 1.28259,-2.30466 1.34272,-2.14433 1.44291,-1.96397 1.50304,-1.82368 1.54311,-1.6834 1.60324,-1.5431198 1.62328,-1.40283 1.62328,-1.26255 1.64332,-1.14231 1.62328,-1.06214 1.60323,-1.00203 1.60324,-0.90182 1.62328,-0.8417 1.6834,-0.72145 1.74352,-0.56113996 1.80364,-0.40081 1.90385,-0.22044 2.00405,-0.02 1.06214,0.0802 1.08219,0.14028 1.10222,0.20041 1.14231,0.26052 1.20243,0.34068996 1.22247,0.40081 1.24251,0.46093 1.30263,0.56114 1.36275,0.62125 1.40283,0.70142 1.44292,0.78158 1.50303,0.86174 1.54312,0.96194 1.6834,1.08218 1.52308,1.70344 1.34271,1.5831998 1.26255,1.5832 1.14231,1.56316 1.0421,1.54311 0.96194,1.483 0.88178,1.48299 0.80162,1.483 0.70142,1.42287 0.66134,1.42288 0.58117,1.40283 0.54109,1.38279 0.90182,2.68543 0.70142,2.6253 0.58117,2.56518 0.48098,2.48502 0.82166,4.82975 v 0 l 0.44089,2.36478 v -0.02 l 0.50101,2.32469 -0.02,-0.02 0.60121,2.3247 -0.02,-0.0401 0.76154,2.30465 -1.28259,0.42085 -0.76154,-2.32469 -0.58117,-2.36478 -0.52106,-2.36477 -0.42085,-2.36478 -0.82166,-4.82976 v 0 l -0.48097,-2.46497 v 0.02 l -0.58117,-2.54514 0.02,0.0401 -0.70142,-2.60526 v 0.0401 l -0.88178,-2.64535 v 0.02 l -0.52105,-1.36275 0.02,0.02 -0.58117,-1.38279 0.02,0.0401 -0.66134,-1.40283 h 0.02 l -0.72145,-1.40284 0.02,0.02 -0.78158,-1.44291 v 0.02 l -0.86174,-1.46295 v 0.02 l -0.94191,-1.483 v 0.02 l -1.02206,-1.52307 0.02,0.02 -1.14231,-1.54312 0.02,0.02 -1.24251,-1.56316 0.02,0.02 -1.34271,-1.58319 0.02,0.02 -1.44291,-1.6232798 0.12024,0.1002 -1.60324,-1.02206 h 0.02 l -1.52307,-0.94191 v 0.02 l -1.483,-0.86174 h 0.02 l -1.42251,-0.76126 h 0.02 l -1.38279,-0.68137 h 0.02 l -1.34271,-0.60122 h 0.02 l -1.28259,-0.54109 0.02,0.02 -1.22247,-0.46093 h 0.02 l -1.18239,-0.38077 h 0.02 l -1.16235,-0.32065 h 0.02 l -1.10222,-0.26052 h 0.0401 l -1.08219,-0.18037 h 0.0401 l -1.06214,-0.14028 h 0.0401 l -1.00202,-0.0601 h 0.0401 -1.92389 0.0601 l -1.82368,0.22044 0.0601,-0.02 -1.74352,0.38077 h 0.0601 l -1.6834,0.5411 0.0601,-0.02 -1.62328,0.70141 0.0401,-0.02 -1.60323,0.82166 0.02,-0.02 -1.5832,0.90182 0.0401,-0.02 -1.5832,1.00203 v -0.02 l -1.60324,1.04211 h 0.0201 l -1.62328,1.12227 0.02,-0.02 -1.60324,1.24251 0.0401,-0.02 -1.60324,1.3827998 0.02,-0.0401 -1.56315,1.52307 0.02,-0.02 -1.52308,1.64332 0.0401,-0.02 -1.48299,1.7836 0.02,-0.02 -1.40284,1.94393 0.02,-0.0401 -1.32267,2.10425 0.02,-0.0401 -1.26255,2.26457 0.02,-0.0401 -1.1423,2.4249 0.02,-0.0401 -1.04211,2.60526 0.02,-0.0401 -0.92186,2.76558 0.02,-0.0401 -0.78158,2.94595 v -0.0401 l -0.58117,3.3668 z m 4.80971,-0.72146 -4.99008,7.45506 -2.96599,-8.45709 z"
     id="path2" />
  <path
     style="fill:#ffffff;fill-opacity:1;fill-rule:evenodd;stroke:none"
     d="m 147.05701,276.96939 c 0,-21.94432 40.88257,-39.74026 91.32444,-39.74026 50.44188,0 91.34449,17.79594 91.34449,39.74026 0,21.94432 -40.90261,39.74026 -91.34449,39.74026 -50.44187,0 -91.32444,-17.79594 -91.32444,-39.74026 z"
     id="path3" />
  <path
     style="fill:none;stroke:#000000;stroke-width:1.34271px;stroke-linecap:butt;stroke-linejoin:miter;stroke-miterlimit:8;stroke-dasharray:none;stroke-opacity:1"
     d="m 147.05701,276.96939 c 0,-21.94432 40.88257,-39.74026 91.32444,-39.74026 50.44188,0 91.34449,17.79594 91.34449,39.74026 0,21.94432 -40.90261,39.74026 -91.34449,39.74026 -50.44187,0 -91.32444,-17.79594 -91.32444,-39.74026"
     id="path4" />
  <text
     xml:space="preserve"
     style="font-style:normal;font-variant:normal;font-weight:400;font-size:24.0625px;line-height:125%;font-family:Consolas;text-align:start;letter-spacing:0px;word-spacing:0px;text-anchor:start;fill:#000000;fill-opacity:1;stroke:none"
     x="185.59657"
     y="285.21518"
     id="text5"><tspan
       sodipodi:role="line"
       x="185.59657"
       y="285.21518"
       id="tspan5"><tspan
         dx="0"
         dy="0"
         style="font-style:normal;font-variant:normal;font-weight:400;font-size:24.0625px;font-family:Consolas;fill:#000000"
         id="tspan4">Rx Frame</tspan></tspan></text>
  <path
     style="fill:#000000;fill-opacity:1;fill-rule:nonzero;stroke:#000000;stroke-width:0.0200405px;stroke-linecap:butt;stroke-linejoin:round;stroke-miterlimit:4;stroke-dasharray:none;stroke-opacity:1"
     d="m 329.58566,276.50846 11.72367,-8.19656 v 0 l 5.7917,-4.10829 v 0 l 5.71154,-4.12834 v 0.02 l 5.61133,-4.14838 h -0.02 l 5.47105,-4.16842 h -0.02 l 5.31073,-4.2085 v 0.02 l 5.11032,-4.24858 h -0.02 l 2.48502,-2.14433 -0.02,0.02 2.4249,-2.16437 v 0 l 2.34474,-2.16437 v 0.02 l 2.30465,-2.18441 -0.02,0.02 2.22449,-2.20446 v 0.0201 l 2.14434,-2.2245 v 0.02 l 2.06416,-2.22449 v 0 l 2.00405,-2.22449 h -0.02 l 1.90385,-2.26458 v 0.02 l 1.84372,-2.26457 h -0.02 l 1.74352,-2.28461 -0.02,0.02 1.66336,-2.30466 h -0.02 l 1.56316,-2.32469 v 0.02 l 1.44291,-2.36478 -0.02,0.02 1.36275,-2.36477 -0.02,0.02 1.26255,-2.38482 -0.02,0.02 1.14231,-2.4249 v 0.0401 l 1.02206,-2.44493 v 0.02 l 0.94191,-2.46498 -0.02,0.02 0.8417,-2.48502 -0.02,0.02 0.74149,-2.50506 v 0.02 l 0.6413,-2.50506 v 0.02 l 0.56113,-2.54514 v 0.02 l 0.46093,-2.56518 v 0.02 l 0.40081,-2.56518 v 0.02 l 0.30061,-2.58522 v 0 l 0.24048,-2.60526 v 0.02 l 0.16033,-2.6253 v 0.02 l 0.1002,-2.62531 v 0 l 0.0401,-2.64534 v 0.02 l -0.02,-2.66538 v 0.02 l -0.1002,-2.66538 v 0.02 l -0.32065,-5.39089 v 0.02 l -0.52105,-5.43097 v 0.02 l -0.68138,-5.45101 v 0 l -0.82166,-5.47105 v 0.02 l -0.92186,-5.51113 v 0 l -1.02206,-5.53117 v 0.02 l -0.88178,-4.52915 1.32267,-0.26052 0.88178,4.52914 1.00202,5.53118 0.9419,5.53117 0.82166,5.49109 0.68138,5.47105 0.52105,5.45101 0.34069,5.41092 0.0802,2.68543 0.0401,2.68542 -0.0401,2.66538 -0.1002,2.64535 -0.16032,2.64534 -0.24049,2.6253 -0.32065,2.6253 -0.40081,2.58523 -0.48097,2.58522 -0.56113,2.56518 -0.6413,2.5251 -0.76153,2.5251 -0.8417,2.5251 -0.94191,2.48502 -1.0421,2.46498 -1.16235,2.44493 -1.26255,2.40486 -1.36275,2.40486 -1.46296,2.36477 -1.58319,2.36478 -1.66336,2.3247 -1.74352,2.30465 -1.84373,2.28461 -1.92388,2.28462 -2.02409,2.24453 -2.08421,2.22449 -2.16437,2.2245 -2.2245,2.20445 -2.30465,2.18441 -2.36478,2.18441 -2.44493,2.16437 -2.46498,2.14434 -5.13036,4.24858 -5.33077,4.22854 -5.47105,4.18846 -5.61133,4.12833 -5.71154,4.14838 -5.81174,4.1083 -11.72368,8.17651 z m 74.51048,-144.95276 2.40486,-8.63745 5.47105,7.11437 z"
     id="path5" />
  <path
     style="fill:#000000;fill-opacity:1;fill-rule:nonzero;stroke:#000000;stroke-width:0.0200405px;stroke-linecap:butt;stroke-linejoin:round;stroke-miterlimit:4;stroke-dasharray:none;stroke-opacity:1"
     d="m 238.88246,316.24872 65.99329,70.18175 -0.96194,0.90182 -66.01333,-70.16171 z m 67.51637,66.91515 2.56518,8.57732 -8.39696,-3.08623 z"
     id="path6" />
  <path
     style="fill:#000000;fill-opacity:1;fill-rule:nonzero;stroke:#000000;stroke-width:0.0200405px;stroke-linecap:butt;stroke-linejoin:round;stroke-miterlimit:4;stroke-dasharray:none;stroke-opacity:1"
     d="m 221.1266,434.58773 -9.37894,-4.50911 -9.19858,-4.70951 -9.01821,-4.88988 -8.81781,-5.07024 -8.61741,-5.2506 -8.39695,-5.37085 -8.19656,-5.53117 -7.97611,-5.67145 -7.75566,-5.77166 -7.53522,-5.87186 -7.29473,-5.97206 -7.05425,-6.05223 -6.81376,-6.13238 -6.55324,-6.17247 -6.31275,-6.23259 -6.05222,-6.27266 -5.77166,-6.27267 -5.51113,-6.31275 -5.2506,-6.29271 -4.95,-6.29271 -4.68947,-6.27267 -4.36883,-6.23259 -4.08825,-6.19251 -3.78765,-6.13238 -3.46701,-6.07226 -3.16639,-5.99211 -2.84575,-5.8919 -2.5251,-5.79169 -2.18441,-5.6915 -1.86376,-5.55121 -1.52308,-5.41093 -1.18239,-5.27064 -0.44089,-2.60527 -0.32065,-2.6253 -0.22044,-2.60526 -0.1002,-2.58522 0.02,-2.60526 0.1002,-2.60527 0.22044,-2.58522 0.32065,-2.58522 0.44089,-2.60526 0.52105,-2.56518 0.62126,-2.58522 0.72146,-2.56518 0.80161,-2.56518 0.90183,-2.56518 1.00202,-2.54514 1.06215,-2.5251 1.16234,-2.54515 1.24251,-2.5251 1.32267,-2.50505 1.40284,-2.50506 1.48299,-2.50506 1.54312,-2.48502 1.62328,-2.48502 1.6834,-2.44494 1.76356,-2.46498 1.82368,-2.44494 1.88381,-2.42489 1.96396,-2.40486 4.06822,-4.80971 4.3087,-4.72956 4.48907,-4.66943 4.68947,-4.62935 4.86984,-4.52914 5.03016,-4.48907 5.1504,-4.40891 5.29068,-4.32874 5.39089,-4.24858 5.47105,-4.16842 5.55121,-4.08826 5.63138,-3.98805 5.65141,-3.90789 5.69149,-3.78765 5.67146,-3.70749 5.69149,-3.58725 5.67146,-3.50708 5.63137,-3.3668 5.7917,-3.32672 5.65141,-3.10627 5.5913,-2.88583 5.51113,-2.66538 5.43097,-2.46498 5.3508,-2.26458 5.29069,-2.0842 5.21052,-1.90385 5.1504,-1.70344 5.07025,-1.56316 5.03015,-1.40283 4.95,-1.24251 4.90992,-1.10223 4.84979,-0.96194 4.80972,-0.82166 4.74959,-0.7415 4.70951,-0.60121 4.64939,-0.48097 4.60931,-0.40081 4.58927,-0.32065 4.54919,-0.22044 4.50911,-0.16033 4.46902,-0.1002 4.44899,-0.0401 8.83785,0.0802 8.7176,0.22045 8.69757,0.28056 1.96397,0.0802 -0.0601,1.32268 -1.96397,-0.0601 -8.67753,-0.3006 h 0.02 l -8.73764,-0.20041 h 0.02 l -8.81781,-0.0802 h 0.02 l -4.44899,0.0401 v 0 l -4.46902,0.0802 h 0.02 l -4.50911,0.16033 h 0.02 l -4.52915,0.24048 v 0 l -4.56923,0.30061 h 0.02 l -4.6093,0.40081 h 0.02 l -4.64939,0.50101 h 0.02 l -4.68948,0.60122 v -0.02 l -4.72955,0.72146 h 0.02 l -4.78967,0.8417 h 0.02 l -4.8498,0.96194 0.02,-0.02 -4.88988,1.10223 h 0.02 l -4.92996,1.24251 v 0 l -5.01012,1.38279 h 0.02 l -5.0502,1.54312 h 0.02 l -5.13036,1.72348 v -0.02 l -5.19048,1.8838 h 0.02 l -5.27064,2.06417 v 0 l -5.33077,2.26458 h 0.02 l -5.41093,2.44494 h 0.02 l -5.49109,2.66538 v 0 l -5.57125,2.86579 h 0.02 l -5.65141,3.08623 h 0.02 l -5.7917,3.30668 h 0.02 l -5.63137,3.38684 v -0.02 l -5.65142,3.48704 h 0.02 l -5.69149,3.58725 h 0.02 l -5.6915,3.68744 v 0 l -5.67145,3.80769 v -0.02 l -5.63138,3.9079 v 0 l -5.61133,3.96801 h 0.02 l -5.55121,4.06822 h 0.02 l -5.49109,4.16842 h 0.02 l -5.39089,4.22854 h 0.02 l -5.27064,4.32874 v -0.02 l -5.1504,4.38886 h 0.02 l -5.01012,4.46903 v 0 l -4.8498,4.52915 0.02,-0.02 -4.68947,4.6093 h 0.02 l -4.48906,4.6494 0.02,-0.02 -4.28867,4.72956 0.02,-0.02 -4.06821,4.78967 v -0.02 l -1.94393,2.40486 0.02,-0.02 -1.8838,2.42489 0.02,-0.02 -1.82369,2.44494 v -0.02 l -1.74352,2.44494 v 0 l -1.6834,2.44494 v -0.02 l -1.60323,2.46497 v 0 l -1.52308,2.46498 v -0.02 l -1.46296,2.48502 v 0 l -1.38279,2.48502 v -0.02 l -1.32267,2.50506 0.02,-0.02 -1.24251,2.50506 0.02,-0.02 -1.16235,2.5251 0.02,-0.02 -1.08218,2.5251 0.02,-0.02 -0.98198,2.5251 v -0.02 l -0.90183,2.54514 0.02,-0.0401 -0.80162,2.54514 v -0.02 l -0.70142,2.54514 v -0.02 l -0.62126,2.56518 v -0.02 l -0.52105,2.54514 v -0.02 l -0.42085,2.56518 0.02,-0.02 -0.32064,2.56518 v -0.0401 l -0.22045,2.56518 v -0.02 l -0.12024,2.56518 v -0.02 2.56518 -0.02 l 0.1002,2.56518 v -0.02 l 0.2004,2.56518 v -0.02 l 0.32065,2.58522 v -0.0401 l 0.44089,2.58522 -0.02,-0.0401 1.18239,5.2506 v -0.0401 l 1.50304,5.37085 -0.02,-0.02 1.86376,5.51113 -0.02,-0.02 2.18441,5.65141 v -0.02 l 2.50506,5.77166 -0.02,-0.0401 2.84575,5.8919 -0.02,-0.02 3.14635,5.95202 v -0.02 l 3.467,6.05222 -0.02,-0.02 3.78765,6.11235 h -0.02 l 4.06822,6.17246 v -0.02 l 4.36882,6.21255 h -0.02 l 4.66943,6.25263 -0.02,-0.02 4.95,6.27267 v 0 l 5.23056,6.27267 h -0.02 l 5.51113,6.29271 -0.02,-0.02 5.77166,6.27266 -0.02,-0.02 6.05222,6.25263 h -0.02 l 6.29271,6.21255 v 0 l 6.55324,6.17247 -0.02,-0.02 6.81376,6.11234 h -0.02 l 7.03421,6.03218 v 0 l 7.27469,5.95202 h -0.02 l 7.51518,5.87186 v -0.02 l 7.73562,5.77166 v -0.02 l 7.95607,5.65141 v 0 l 8.17651,5.51114 h -0.02 l 8.39696,5.37084 -0.02,-0.02 8.59737,5.23057 v 0 l 8.79776,5.07024 h -0.02 l 8.99818,4.88987 v -0.02 l 9.17853,4.70951 -0.02,-0.02 9.37895,4.50911 z m 83.2281,-366.46014 7.85586,4.28867 -8.13643,3.70748 z"
     id="path7" />
  <path
     style="fill:#ffffff;fill-opacity:1;fill-rule:evenodd;stroke:none"
     d="m 0,229.95443 v 29.13885 h 81.98558 v -29.13885 z"
     id="path8" />
  <text
     xml:space="preserve"
     style="font-style:normal;font-variant:normal;font-weight:400;font-size:16.0625px;line-height:125%;font-family:Consolas;text-align:start;letter-spacing:0px;word-spacing:0px;text-anchor:start;fill:#000000;fill-opacity:1;stroke:none"
     x="9.6920605"
     y="249.90102"
     id="text9"><tspan
       sodipodi:role="line"
       x="9.6920605"
       y="249.90102"
       id="tspan9"><tspan
         dx="0"
         dy="0"
         style="font-style:normal;font-variant:normal;font-weight:400;font-size:16.0625px;font-family:Consolas;fill:#000000"
         id="tspan8">TX_DONE</tspan></tspan></text>
  <path
     style="fill:#000000;fill-opacity:1;fill-rule:nonzero;stroke:#000000;stroke-width:0.0200405px;stroke-linecap:butt;stroke-linejoin:round;stroke-miterlimit:4;stroke-dasharray:none;stroke-opacity:1"
     d="m 346.80042,113.17858 -13.88804,6.95405 v 0 l -6.87389,3.48704 v 0 l -6.79372,3.50708 v -0.02 l -6.69352,3.50709 v 0 l -6.55323,3.52712 h 0.02 l -6.39291,3.54716 v 0 l -6.21255,3.56721 v 0 l -3.02611,1.7836 h 0.02 l -2.96599,1.80364 v 0 l -2.90587,1.80365 v 0 l -2.84575,1.82368 0.02,-0.02 -2.78563,1.84372 h 0.02 l -2.70546,1.82369 v 0 l -2.6253,1.84372 v -0.02 l -2.54514,1.86376 v 0 l -2.46498,1.86377 v -0.02 l -2.38482,1.8838 0.02,-0.02 -2.30465,1.90385 v -0.02 l -2.20445,1.90384 v -0.02 l -2.10425,1.92389 v -0.02 l -2.00405,1.92388 0.02,-0.02 -1.92389,1.94393 v -0.02 l -1.80364,1.94392 0.02,-0.02 -1.70344,1.96397 v 0 l -1.60324,1.96397 0.02,-0.02 -1.50303,1.984 v -0.02 l -1.40284,2.00405 0.02,-0.02 -1.32267,2.02409 0.02,-0.02 -1.22247,2.02409 0.02,-0.02 -1.14231,2.02409 0.02,-0.02 -1.04211,2.04413 v -0.02 l -0.96194,2.06417 v -0.02 l -0.88178,2.06417 v -0.02 l -0.82166,2.08421 v -0.02 l -0.7415,2.08421 0.02,-0.02 -0.68137,2.0842 v -0.02 l -0.62126,2.10425 0.02,-0.02 -0.56113,2.12429 v -0.02 l -0.50101,2.10425 0.02,-0.02 -0.8417,4.24858 v -0.0401 l -0.66134,4.28866 0.02,-0.02 -0.50101,4.28867 v -0.02 l -0.34069,4.3087 v -0.02 l -0.26052,4.32874 v 0 l -0.16033,4.32874 v 0 l -0.0401,2.00405 -1.34271,-0.0401 0.0601,-2.00405 0.16033,-4.34878 0.24048,-4.34878 0.36073,-4.32875 0.48097,-4.3087 0.66134,-4.3087 0.8417,-4.28866 0.50101,-2.12429 0.56113,-2.12429 0.62126,-2.12429 0.68137,-2.10425 0.76154,-2.10425 0.82166,-2.10425 0.90182,-2.08421 0.98199,-2.08421 1.06214,-2.06417 1.14231,-2.04413 1.22247,-2.04413 1.32267,-2.04413 1.42287,-2.02409 1.52308,-2.00404 1.62328,-1.98401 1.72348,-1.98401 1.82368,-1.96396 1.94393,-1.94393 2.02408,-1.92389 2.1243,-1.94392 2.22449,-1.90385 2.32469,-1.90384 2.38482,-1.86377 2.48502,-1.8838 2.56518,-1.86377 2.64534,-1.84372 2.70547,-1.84372 2.78562,-1.82369 2.86579,-1.82368 2.90587,-1.82368 2.96599,-1.80365 3.04615,-1.80364 6.21255,-3.5672 6.39291,-3.54717 6.57328,-3.52712 6.69352,-3.52712 6.81376,-3.48705 6.87388,-3.48704 13.90809,-6.95405 z m -108.83982,116.63557 -4.18846,7.91599 -3.82773,-8.09635 z"
     id="path9" />
  <path
     style="fill:#ffffff;fill-opacity:1;fill-rule:evenodd;stroke:none"
     d="m 209.76365,146.8065 v 29.13885 H 354.3156 V 146.8065 Z"
     id="path10" />
  <text
     xml:space="preserve"
     style="font-style:normal;font-variant:normal;font-weight:400;font-size:16.0625px;line-height:125%;font-family:Consolas;text-align:start;letter-spacing:0px;word-spacing:0px;text-anchor:start;fill:#000000;fill-opacity:1;stroke:none"
     x="219.46187"
     y="166.76186"
     id="text11"><tspan
       sodipodi:role="line"
       x="219.46187"
       y="166.76186"
       id="tspan11"><tspan
         dx="0"
         dy="0"
         style="font-style:normal;font-variant:normal;font-weight:400;font-size:16.0625px;font-family:Consolas;fill:#000000"
         id="tspan10">FRAME_DETECTED</tspan></tspan></text>
  <path
     style="fill:#ffffff;fill-opacity:1;fill-rule:evenodd;stroke:none"
     d="m 214.35292,327.81208 v 48.57811 h 198.18026 v -48.57811 z"
     id="path11" />
  <text
     xml:space="preserve"
     style="font-style:normal;font-variant:normal;font-weight:400;font-size:16.0625px;line-height:125%;font-family:Consolas;text-align:start;letter-spacing:0px;word-spacing:0px;text-anchor:start;fill:#000000;fill-opacity:1;stroke:none"
     x="224.04077"
     y="347.7684"
     id="text13"><tspan
       sodipodi:role="line"
       x="224.04077"
       y="347.7684"
       id="tspan13"><tspan
         dx="0"
         dy="0"
         style="font-style:normal;font-variant:normal;font-weight:400;font-size:16.0625px;font-family:Consolas;fill:#000000"
         id="tspan12">VALID_DATA</tspan></tspan></text>
  <text
     xml:space="preserve"
     style="font-style:normal;font-variant:normal;font-weight:400;font-size:16.0625px;line-height:125%;font-family:Consolas;text-align:start;letter-spacing:0px;word-spacing:0px;text-anchor:start;fill:#000000;fill-opacity:1;stroke:none"
     x="224.04077"
     y="367.00726"
     id="text15"><tspan
       sodipodi:role="line"
       x="224.04077"
       y="367.00726"
       id="tspan15"><tspan
         dx="0"
         dy="0"
         style="font-style:normal;font-variant:normal;font-weight:400;font-size:16.0625px;font-family:Consolas;fill:#000000"
         id="tspan14">&gt;&gt;raise </tspan></tspan></text>
  <text
     xml:space="preserve"
     style="font-style:normal;font-variant:normal;font-weight:400;font-size:16.0625px;line-height:125%;font-family:Consolas;text-align:start;letter-spacing:0px;word-spacing:0px;text-anchor:start;fill:#000000;fill-opacity:1;stroke:none"
     x="294.74356"
     y="367.00726"
     id="text17"><tspan
       sodipodi:role="line"
       x="294.74356"
       y="367.00726"
       id="tspan17"><tspan
         dx="0"
         dy="0"
         style="font-style:normal;font-variant:normal;font-weight:400;font-size:16.0625px;font-family:Consolas;fill:#000000"
         id="tspan16">MAC_RX event</tspan></tspan></text>
  <path
     style="fill:#000000;fill-opacity:1;fill-rule:nonzero;stroke:#000000;stroke-width:0.0400809px;stroke-linecap:butt;stroke-linejoin:round;stroke-miterlimit:4;stroke-dasharray:none;stroke-opacity:1"
     d="m 485.19995,106.44498 6.49311,3.72753 6.49312,3.76761 6.45303,3.84777 6.37287,3.96802 6.29271,4.12833 3.12631,2.16438 3.04616,2.20445 3.08623,2.28461 3.00607,2.36478 2.96599,2.40486 2.92591,2.5251 2.92591,2.56518 2.84575,2.68542 2.80566,2.80567 2.76559,2.88582 2.68542,2.966 2.64535,3.12631 2.56518,3.20648 2.5251,3.3668 2.48502,3.44696 2.36477,3.60728 2.3247,3.76761 2.24453,3.88785 2.20445,4.04818 2.08421,4.2085 2.00405,4.32874 1.92389,4.52915 3.5672,9.37894 3.12631,9.65951 2.72551,9.98016 2.28461,10.34088 1.84373,10.62146 1.48299,10.98218 1.04211,11.34291 0.60121,11.70363 0.24049,12.06437 -0.20041,12.46518 -0.60121,12.86598 -0.96194,13.2668 -1.40284,13.70768 -1.76356,14.1085 -2.16437,14.54938 -1.44292,8.417 -1.32267,-0.24049 1.44292,-8.37691 v 0 l 2.16437,-14.54939 v 0.0401 l 1.76356,-14.10849 v 0 l 1.40283,-13.66761 v 0.0401 l 0.96195,-13.26679 v 0 l 0.60121,-12.82591 v 0.0401 l 0.16032,-12.46518 v 0.0401 l -0.2004,-12.06437 v 0.0401 l -0.64129,-11.70364 v 0.0401 l -1.04211,-11.34291 v 0.0401 l -1.44291,-10.9421 0.0401,0.0401 -1.88381,-10.62145 v 0.0401 l -2.28461,-10.3008 v 0.0401 l -2.68543,-9.94008 v 0 l -3.12631,-9.61943 0.0401,0.0401 -3.5672,-9.33886 v 0 l -1.92389,-4.48906 h 0.0401 l -2.00405,-4.32875 v 0 l -2.08421,-4.16842 v 0 l -2.16437,-4.00809 v 0.0401 l -2.20445,-3.88785 v 0 l -2.32469,-3.72753 v 0 l -2.36478,-3.5672 v 0 l -2.44494,-3.44697 h 0.0401 l -2.5251,-3.32672 v 0.0401 l -2.56518,-3.20648 v 0 l -2.60526,-3.08623 v 0 l -2.68542,-2.96599 v 0 l -2.72551,-2.84575 v 0 l -2.76558,-2.76559 v 0 l -2.84575,-2.64534 v 0 l -2.88583,-2.56518 h 0.0401 l -2.92591,-2.48502 v 0 l -2.96599,-2.40486 v 0 l -3.00607,-2.32469 v 0 l -3.04615,-2.28462 h 0.0401 l -3.08623,-2.20445 v 0 l -3.08624,-2.12429 v 0 l -6.25263,-4.12834 v 0 l -6.37287,-3.96801 v 0 l -6.41295,-3.80769 v 0 l -6.45303,-3.76761 v 0 l -6.49312,-3.72753 z m 101.56513,273.51241 -5.33077,7.21457 -2.60526,-8.53724 z"
     id="path17" />
  <path
     style="fill:#000000;fill-opacity:1;fill-rule:nonzero;stroke:#000000;stroke-width:0.0400809px;stroke-linecap:butt;stroke-linejoin:round;stroke-miterlimit:4;stroke-dasharray:none;stroke-opacity:1"
     d="m 530.77199,396.1501 -9.81983,-14.9502 -9.69959,-14.99027 -4.76964,-7.53522 -4.72955,-7.61538 -4.60931,-7.65546 -4.48906,-7.65547 -4.40891,-7.7757 -4.24858,-7.85587 -4.12834,-7.93603 -3.96801,-7.9761 -3.76761,-8.13644 -3.56721,-8.21659 -3.3668,-8.33684 -3.16639,-8.45708 -2.92591,-8.57732 -2.72551,-8.69757 -2.48501,-8.81781 -2.3247,-8.93805 -2.12429,-9.01822 -1.96397,-9.09837 -1.80364,-9.17854 -1.6834,-9.2587 -1.56316,-9.29878 -1.48299,-9.37894 -1.40283,-9.41903 -1.2826,-9.49918 -2.44493,-18.99837 -1.52308,-12.4251 1.32267,-0.16032 1.52308,12.42509 v 0 l 2.44494,18.99837 v 0 l 1.28259,9.45911 v 0 l 1.40283,9.41902 v 0 l 1.44291,9.33886 v 0 l 1.56316,9.29878 v 0 l 1.6834,9.2587 v 0 l 1.84373,9.17854 v -0.0401 l 1.96396,9.09838 v 0 l 2.12429,9.01821 v -0.0401 l 2.28462,8.93805 v -0.0401 l 2.48502,8.81781 v -0.0401 l 2.68542,8.69757 v 0 l 2.92591,8.53724 v 0 l 3.16639,8.417 v 0 l 3.3668,8.29675 h -0.0401 l 3.60729,8.2166 v -0.0401 l 3.76761,8.09635 h -0.0401 l 3.96801,8.01619 v -0.0401 l 4.08826,7.93603 v -0.0401 l 4.24858,7.85586 v 0 l 4.4089,7.73563 v 0 l 4.48907,7.69554 v -0.0401 l 4.60931,7.65546 v 0 l 4.68947,7.5753 v 0 l 4.76963,7.53522 v 0 l 9.69959,14.99027 v 0 l 9.81984,14.9502 z m -99.64124,-263.97315 3.00607,-8.45708 4.97003,7.49514 z"
     id="path18" />
  <path
     style="fill:#ffffff;fill-opacity:1;fill-rule:evenodd;stroke:none"
     d="m 413.81577,315.3469 v 48.57811 H 549.40963 V 315.3469 Z"
     id="path19" />
  <text
     xml:space="preserve"
     style="font-style:normal;font-variant:normal;font-weight:400;font-size:16.0625px;line-height:125%;font-family:Consolas;text-align:start;letter-spacing:0px;word-spacing:0px;text-anchor:start;fill:#000000;fill-opacity:1;stroke:none"
     x="423.49094"
     y="335.28564"
     id="text20"><tspan
       sodipodi:role="line"
       x="423.49094"
       y="335.28564"
       id="tspan20"><tspan
         dx="0"
         dy="0"
         style="font-style:normal;font-variant:normal;font-weight:400;font-size:16.0625px;font-family:Consolas;fill:#000000"
         id="tspan19">TX_DONE</tspan></tspan></text>
  <text
     xml:space="preserve"
     style="font-style:normal;font-variant:normal;font-weight:400;font-size:16.0625px;line-height:125%;font-family:Consolas;text-align:start;letter-spacing:0px;word-spacing:0px;text-anchor:start;fill:#000000;fill-opacity:1;stroke:none"
     x="423.49094"
     y="354.52451"
     id="text22"><tspan
       sodipodi:role="line"
       x="423.49094"
       y="354.52451"
       id="tspan22"><tspan
         dx="0"
         dy="0"
         style="font-style:normal;font-variant:normal;font-weight:400;font-size:16.0625px;font-family:Consolas;fill:#000000"
         id="tspan21">&gt;&gt;set </tspan></tspan></text>
  <text
     xml:space="preserve"
     style="font-style:normal;font-variant:normal;font-weight:400;font-size:16.0625px;line-height:125%;font-family:Consolas;text-align:start;letter-spacing:0px;word-spacing:0px;text-anchor:start;fill:#000000;fill-opacity:1;stroke:none"
     x="476.3978"
     y="354.52451"
     id="text24"><tspan
       sodipodi:role="line"
       x="476.3978"
       y="354.52451"
       id="tspan24"><tspan
         dx="0"
         dy="0"
         style="font-style:normal;font-variant:normal;font-weight:400;font-size:16.0625px;font-family:Consolas;fill:#000000"
         id="tspan23">TIMEOUT</tspan></tspan></text>
  <path
     style="fill:#ffffff;fill-opacity:1;fill-rule:evenodd;stroke:none"
     d="m 284.9956,191.5168 v 48.55807 h 153.49 V 191.5168 Z"
     id="path24" />
  <text
     xml:space="preserve"
     style="font-style:normal;font-variant:normal;font-weight:400;font-size:16.0625px;line-height:125%;font-family:Consolas;text-align:start;letter-spacing:0px;word-spacing:0px;text-anchor:start;fill:#000000;fill-opacity:1;stroke:none"
     x="294.68964"
     y="211.466"
     id="text26"><tspan
       sodipodi:role="line"
       x="294.68964"
       y="211.466"
       id="tspan26"><tspan
         dx="0"
         dy="0"
         style="font-style:normal;font-variant:normal;font-weight:400;font-size:16.0625px;font-family:Consolas;fill:#000000"
         id="tspan25">VALID_ACK</tspan></tspan></text>
  <text
     xml:space="preserve"
     style="font-style:normal;font-variant:normal;font-weight:400;font-size:16.0625px;line-height:125%;font-family:Consolas;text-align:start;letter-spacing:0px;word-spacing:0px;text-anchor:start;fill:#000000;fill-opacity:1;stroke:none"
     x="294.68964"
     y="230.70486"
     id="text28"><tspan
       sodipodi:role="line"
       x="294.68964"
       y="230.70486"
       id="tspan28"><tspan
         dx="0"
         dy="0"
         style="font-style:normal;font-variant:normal;font-weight:400;font-size:16.0625px;font-family:Consolas;fill:#000000"
         id="tspan27">&gt;&gt;clear </tspan></tspan></text>
  <text
     xml:space="preserve"
     style="font-style:normal;font-variant:normal;font-weight:400;font-size:16.0625px;line-height:125%;font-family:Consolas;text-align:start;letter-spacing:0px;word-spacing:0px;text-anchor:start;fill:#000000;fill-opacity:1;stroke:none"
     x="365.39243"
     y="230.70486"
     id="text30"><tspan
       sodipodi:role="line"
       x="365.39243"
       y="230.70486"
       id="tspan30"><tspan
         dx="0"
         dy="0"
         style="font-style:normal;font-variant:normal;font-weight:400;font-size:16.0625px;font-family:Consolas;fill:#000000"
         id="tspan29">TIMEOUT</tspan></tspan></text>
  <path
     style="fill:#000000;fill-opacity:1;fill-rule:nonzero;stroke:#000000;stroke-width:0.0200405px;stroke-linecap:butt;stroke-linejoin:round;stroke-miterlimit:4;stroke-dasharray:none;stroke-opacity:1"
     d="m 173.45031,249.45382 -1.46295,-3.9079 v 0 l -1.36276,-3.86781 v 0 l -1.28259,-3.82773 v 0.02 l -1.20242,-3.80769 v 0 l -1.10223,-3.74757 v 0.02 l -1.00202,-3.72753 v 0.02 l -0.92187,-3.68744 v 0.02 l -0.80162,-3.62733 v 0.02 l -0.70141,-3.58724 v 0.02 l -0.60122,-3.54717 v 0.02 l -0.50101,-3.48704 v 0.02 l -0.38077,-3.467 v 0.02 l -0.28056,-3.40688 v 0.02 l -0.16033,-3.3668 v 0.02 l -0.0601,-3.30668 v 0.02 l 0.0802,-3.2666 v 0.02 l 0.18037,-3.22651 v 0.0401 l 0.32064,-3.18644 v 0.0401 l 0.4409,-3.12631 v 0.02 l 0.56113,-3.08623 v 0.02 l 0.70142,-3.02611 v 0.02 l 0.82165,-2.96599 v 0.02 l 0.96195,-2.92591 v 0.02 l 1.10222,-2.88583 -0.02,0.0401 1.24251,-2.84575 v 0.0401 l 1.3828,-2.78562 -0.02,0.02 1.54311,-2.72551 -0.02,0.02 1.6834,-2.68542 -0.02,0.0401 1.84372,-2.6253 -0.02,0.02 1.98401,-2.58522 -0.02,0.02 2.12429,-2.5251 -0.02,0.02 2.30466,-2.46498 v 0.02 l 1.22246,-1.22247 -0.02,0.02 1.28259,-1.20243 v 0 l 1.36276,-1.20242 -0.02,0.02 1.40283,-1.20243 v 0.02 l 1.48299,-1.18239 v 0.02 l 1.54312,-1.18239 -0.02,0.02 3.24656,-2.32469 -0.02,0.02 3.48704,-2.28462 -0.02,0.02 3.66741,-2.24453 -0.02,0.02 3.86781,-2.20445 -0.02,0.02 4.02813,-2.14433 h -0.02 l 4.18846,-2.10425 -0.02,0.02 4.32874,-2.06417 h -0.02 l 4.42895,-2.00405 v 0 l 4.52915,-1.96396 h -0.02 l 4.62935,-1.90385 v 0 l 4.68947,-1.86376 -0.02,0.02 9.51922,-3.56721 h -0.02 l 9.61943,-3.32672 h -0.02 l 4.80971,-1.58319 v 0 l 4.76964,-1.52308 h -0.02 l 4.72955,-1.46295 v 0 l 4.66943,-1.40284 h -0.02 l 4.58927,-1.32267 v 0 l 4.5091,-1.26255 h -0.02 l 4.38887,-1.22247 v 0 l 4.26862,-1.14231 h -0.02 l 4.12834,-1.06214 v 0 l 3.96801,-1.00202 h -0.02 l 3.78765,-0.92187 v 0 l 3.66741,-0.86174 -0.32065,-1.30263 -3.64737,0.86174 -3.80769,0.94191 -3.96801,1.00202 -4.12834,1.06214 -4.24858,1.14231 -4.4089,1.20243 -4.48907,1.28259 -4.58927,1.34271 -4.68947,1.40284 -4.72955,1.46295 -4.76964,1.52308 -4.80971,1.58319 -9.61943,3.34676 -9.51922,3.54717 -4.70952,1.86376 -4.64939,1.92389 -4.52914,1.96396 -4.44899,2.00405 -4.32874,2.08421 -4.18846,2.10425 -4.04818,2.14433 -3.86781,2.20445 -3.68745,2.24454 -3.50708,2.28461 -3.2666,2.34474 -1.56315,1.18239 -1.50304,1.18238 -1.42287,1.20243 -1.3828,1.22247 -1.30263,1.20243 -1.24251,1.24251 -2.32469,2.48502 -2.14433,2.56518 -2.00405,2.60526 -1.86377,2.64534 -1.70344,2.70547 -1.54311,2.76558 -1.40284,2.82571 -1.26255,2.86579 -1.12226,2.90587 -0.98199,2.96599 -0.8417,3.00607 -0.70141,3.06619 -0.58118,3.12632 -0.44089,3.14635 -0.32064,3.20648 -0.20041,3.24655 -0.0601,3.28664 0.0401,3.34676 0.16032,3.38684 0.28057,3.42692 0.40081,3.48705 0.50101,3.50708 0.60122,3.5672 0.72145,3.58725 0.82166,3.64736 0.90182,3.68745 1.02207,3.74757 1.12227,3.74757 1.18238,3.82773 1.30263,3.84777 1.3828,3.88785 1.46295,3.92794 z M 304.61522,98.6292 l 6.93401,-5.6915 -8.69757,-2.12429 z"
     id="path30" />
  <path
     style="fill:#ffffff;fill-opacity:1;fill-rule:evenodd;stroke:none"
     d="m 122.58758,177.92936 v 48.55807 h 99.86169 v -48.55807 z"
     id="path31" />
  <text
     xml:space="preserve"
     style="font-style:normal;font-variant:normal;font-weight:400;font-size:16.0625px;line-height:125%;font-family:Consolas;text-align:start;letter-spacing:0px;word-spacing:0px;text-anchor:start;fill:#000000;fill-opacity:1;stroke:none"
     x="132.27025"
     y="197.88152"
     id="text32"><tspan
       sodipodi:role="line"
       x="132.27025"
       y="197.88152"
       id="tspan32"><tspan
         dx="0"
         dy="0"
         style="font-style:normal;font-variant:normal;font-weight:400;font-size:16.0625px;font-family:Consolas;fill:#000000"
         id="tspan31">CRC_ERROR</tspan></tspan></text>
  <text
     xml:space="preserve"
     style="font-style:normal;font-variant:normal;font-weight:400;font-size:16.0625px;line-height:125%;font-family:Consolas;text-align:start;letter-spacing:0px;word-spacing:0px;text-anchor:start;fill:#000000;fill-opacity:1;stroke:none"
     x="132.27025"
     y="217.12039"
     id="text34"><tspan
       sodipodi:role="line"
       x="132.27025"
       y="217.12039"
       id="tspan34"><tspan
         dx="0"
         dy="0"
         style="font-style:normal;font-variant:normal;font-weight:400;font-size:16.0625px;font-family:Consolas;fill:#000000"
         id="tspan33">&gt;&gt;</tspan></tspan></text>
  <text
     xml:space="preserve"
     style="font-style:normal;font-variant:normal;font-weight:400;font-size:16.0625px;line-height:125%;font-family:Consolas;text-align:start;letter-spacing:0px;word-spacing:0px;text-anchor:start;fill:#000000;fill-opacity:1;stroke:none"
     x="149.90585"
     y="217.12039"
     id="text36"><tspan
       sodipodi:role="line"
       x="149.90585"
       y="217.12039"
       id="tspan36"><tspan
         dx="0"
         dy="0"
         style="font-style:normal;font-variant:normal;font-weight:400;font-size:16.0625px;font-family:Consolas;fill:#000000"
         id="tspan35">drop</tspan></tspan></text>
  <path
     style="fill:#000000;fill-opacity:1;fill-rule:nonzero;stroke:#000000;stroke-width:0.0400809px;stroke-linecap:butt;stroke-linejoin:round;stroke-miterlimit:4;stroke-dasharray:none;stroke-opacity:1"
     d="m 496.30237,67.4863 8.57733,-0.20041 8.6174,-0.12024 8.57732,-0.0401 8.61741,0.0802 8.6174,0.20041 8.61741,0.40081 4.32874,0.28056 4.28866,0.36073 4.32874,0.44089 4.32875,0.48097 4.32874,0.56114 4.32874,0.68137 4.32874,0.72146 4.32875,0.80162 4.32874,0.92186 4.36882,1.04211 4.32875,1.12226 4.36882,1.28259 4.32874,1.32267 4.36883,1.483 4.32874,1.60324 4.36882,1.76356 4.36883,1.84372 4.36882,2.04413 4.36882,2.12429 4.36883,2.3247 4.4089,2.44493 4.44899,2.60527 4.44898,2.76558 4.48907,2.92591 4.52915,3.00607 4.56923,3.1664 4.56922,3.32672 4.60931,3.40688 4.60931,3.52712 4.64939,3.64737 4.64939,3.76761 4.64939,3.84777 4.68948,3.96801 4.68947,4.04818 4.68947,4.12834 4.68947,4.2085 4.68947,4.28866 4.68947,4.36882 4.72955,4.40891 4.68948,4.48906 9.33886,9.13846 9.29878,9.33886 9.2587,9.45911 9.17853,9.61942 9.01822,9.61943 4.4089,4.76964 -0.96194,0.88178 -4.4089,-4.72956 v 0 l -9.0583,-9.6595 v 0 l -9.13846,-9.57935 v 0.0401 l -9.21861,-9.49919 v 0 l -9.29879,-9.29878 v 0 l -9.37894,-9.13845 v 0 l -4.64939,-4.48907 v 0 l -4.68947,-4.4089 v 0 l -4.68947,-4.36883 v 0.0401 l -4.72955,-4.28866 h 0.0401 l -4.68947,-4.2085 v 0 l -4.68947,-4.12834 v 0 l -4.68948,-4.04817 v 0 l -4.64939,-3.92794 v 0 l -4.64939,-3.84777 v 0 l -4.64939,-3.76761 v 0 l -4.64939,-3.64736 h 0.0401 l -4.60931,-3.52713 v 0.0401 l -4.6093,-3.44696 v 0 l -4.56923,-3.28664 v 0.0401 l -4.52915,-3.16639 v 0 l -4.48907,-3.04615 v 0 l -4.48906,-2.88583 v 0 l -4.44899,-2.72551 h 0.0401 l -4.44898,-2.60526 h 0.0401 l -4.40891,-2.44494 h 0.0401 l -4.36882,-2.28461 v 0 l -4.32874,-2.12429 v 0 l -4.36883,-2.00405 h 0.0401 l -4.36882,-1.84372 h 0.0401 l -4.36882,-1.76356 0.0401,0.0401 -4.36882,-1.60324 h 0.0401 l -4.36883,-1.483 h 0.0401 l -4.32874,-1.36275 v 0 l -4.32874,-1.24251 0.0401,0.0401 -4.32874,-1.12226 v 0 l -4.32875,-1.04211 v 0 l -4.32874,-0.92186 h 0.0401 l -4.32874,-0.80162 v 0 l -4.32874,-0.76154 h 0.0401 l -4.32875,-0.64129 h 0.0401 l -4.32875,-0.56114 v 0 l -4.28866,-0.48097 v 0 l -4.32874,-0.44089 h 0.0401 l -4.32874,-0.32064 v 0 l -4.28866,-0.28057 v 0 l -8.57733,-0.44089 v 0 l -8.57732,-0.20041 v 0 l -8.61741,-0.0802 h 0.0401 l -8.6174,0.0802 v 0 l -8.57732,0.12025 v 0 l -8.57733,0.16032 z m 282.73103,144.57199 2.48502,8.57732 -8.37692,-3.12631 z"
     id="path36" />
  <path
     style="fill:#000000;fill-opacity:1;fill-rule:nonzero;stroke:#000000;stroke-width:0.0400809px;stroke-linecap:butt;stroke-linejoin:round;stroke-miterlimit:4;stroke-dasharray:none;stroke-opacity:1"
     d="m 800.79736,282.72101 3.16639,4.08825 3.00607,4.16842 1.483,2.16437 1.36275,2.20446 1.36275,2.28461 1.20243,2.36478 1.16235,2.44493 1.00202,2.56518 0.92186,2.64535 0.76154,2.80566 0.60122,2.88583 0.48097,3.04615 0.24048,3.20648 0.12025,3.32672 -0.12025,3.52712 -0.28056,3.64737 -0.48097,3.84777 -0.6413,3.92793 -0.76154,4.08826 -0.92186,4.16842 -1.0421,4.28866 -1.12227,4.36883 -1.24251,4.48906 -1.36275,4.52915 -1.40284,4.60931 -1.44291,4.64939 -3.04615,9.41902 -1.08219,3.1664 -1.24251,-0.44089 1.04211,-3.1664 v 0 l 3.04615,-9.37894 v 0 l 1.483,-4.64939 v 0 l 1.40283,-4.60931 -0.0401,0.0401 1.36275,-4.52915 v 0 l 1.24251,-4.48906 v 0.0401 l 1.12227,-4.36883 v 0 l 1.0421,-4.28866 v 0.0401 l 0.88178,-4.16842 v 0 l 0.80162,-4.04817 -0.0401,0.0401 0.64129,-3.92793 v 0 l 0.4409,-3.76761 v 0 l 0.32064,-3.60729 v 0 l 0.0802,-3.44696 v 0.0401 l -0.0802,-3.32672 v 0.0401 l -0.28056,-3.16639 v 0.0401 l -0.44089,-3.00607 0.0401,0.0401 -0.6413,-2.84575 0.0401,0.0401 -0.76154,-2.7255 v 0.0401 l -0.88178,-2.64535 v 0.0401 l -1.00202,-2.5251 v 0.0401 l -1.12227,-2.40486 h 0.0401 l -1.24251,-2.3247 0.0401,0.0401 -1.32268,-2.28462 v 0.0401 l -1.36275,-2.20445 v 0.0401 l -1.44291,-2.16437 v 0.0401 l -3.00607,-4.16842 v 0 l -3.12632,-4.08826 z m 5.53117,102.68739 -6.33279,6.33279 -1.28259,-8.85789 z"
     id="path37" />
  <path
     style="fill:#ffffff;fill-opacity:1;fill-rule:evenodd;stroke:none"
     d="m 713.06016,265.20563 c 0,-21.92428 40.92265,-39.72022 91.34448,-39.72022 50.46192,0 91.34453,17.79594 91.34453,39.72022 0,21.96436 -40.88261,39.7603 -91.34453,39.7603 -50.42183,0 -91.34448,-17.79594 -91.34448,-39.7603 z"
     id="path38" />
  <path
     style="fill:none;stroke:#000000;stroke-width:1.32267px;stroke-linecap:butt;stroke-linejoin:miter;stroke-miterlimit:8;stroke-dasharray:none;stroke-opacity:1"
     d="m 713.06016,265.20563 c 0,-21.92428 40.92265,-39.72022 91.34448,-39.72022 50.46192,0 91.34453,17.79594 91.34453,39.72022 0,21.96436 -40.88261,39.7603 -91.34453,39.7603 -50.42183,0 -91.34448,-17.79594 -91.34448,-39.7603"
     id="path39" />
  <text
     xml:space="preserve"
     style="font-style:normal;font-variant:normal;font-weight:400;font-size:24.0625px;line-height:125%;font-family:Consolas;text-align:start;letter-spacing:0px;word-spacing:0px;text-anchor:start;fill:#000000;fill-opacity:1;stroke:none"
     x="784.63971"
     y="259.02188"
     id="text40"><tspan
       sodipodi:role="line"
       x="784.63971"
       y="259.02188"
       id="tspan40"><tspan
         dx="0"
         dy="0"
         style="font-style:normal;font-variant:normal;font-weight:400;font-size:24.0625px;font-family:Consolas;fill:#000000"
         id="tspan39">ACK </tspan></tspan></text>
  <text
     xml:space="preserve"
     style="font-style:normal;font-variant:normal;font-weight:400;font-size:24.0625px;line-height:125%;font-family:Consolas;text-align:start;letter-spacing:0px;word-spacing:0px;text-anchor:start;fill:#000000;fill-opacity:1;stroke:none"
     x="758.18628"
     y="287.88019"
     id="text42"><tspan
       sodipodi:role="line"
       x="758.18628"
       y="287.88019"
       id="tspan42"><tspan
         dx="0"
         dy="0"
         style="font-style:normal;font-variant:normal;font-weight:400;font-size:24.0625px;font-family:Consolas;fill:#000000"
         id="tspan41">Timeout</tspan></tspan></text>
  <path
     style="fill:#ffffff;fill-opacity:1;fill-rule:evenodd;stroke:none"
     d="m 308.22251,81.65491 c 0,-21.94432 40.90261,-39.74026 91.34449,-39.74026 50.44187,0 91.34448,17.79594 91.34448,39.74026 0,21.94433 -40.90261,39.74027 -91.34448,39.74027 -50.44188,0 -91.34449,-17.79594 -91.34449,-39.74027 z"
     id="path42" />
  <path
     style="fill:none;stroke:#000000;stroke-width:1.34271px;stroke-linecap:butt;stroke-linejoin:miter;stroke-miterlimit:8;stroke-dasharray:none;stroke-opacity:1"
     d="m 308.22251,81.65491 c 0,-21.94432 40.90261,-39.74026 91.34449,-39.74026 50.44187,0 91.34448,17.79594 91.34448,39.74026 0,21.94433 -40.90261,39.74027 -91.34448,39.74027 -50.44188,0 -91.34449,-17.79594 -91.34449,-39.74027"
     id="path43" />
  <text
     xml:space="preserve"
     style="font-style:normal;font-variant:normal;font-weight:400;font-size:24.0625px;line-height:125%;font-family:Consolas;text-align:start;letter-spacing:0px;word-spacing:0px;text-anchor:start;fill:#000000;fill-opacity:1;stroke:none"
     x="373.23138"
     y="89.89975"
     id="text44"><tspan
       sodipodi:role="line"
       x="373.23138"
       y="89.89975"
       id="tspan44"><tspan
         dx="0"
         dy="0"
         style="font-style:normal;font-variant:normal;font-weight:400;font-size:24.0625px;font-family:Consolas;fill:#000000"
         id="tspan43">Idle</tspan></tspan></text>
  <path
     style="fill:#ffffff;fill-opacity:1;fill-rule:evenodd;stroke:none"
     d="m 538.14688,223.64168 v 29.13886 h 99.88173 v -29.13886 z"
     id="path44" />
  <text
     xml:space="preserve"
     style="font-style:normal;font-variant:normal;font-weight:400;font-size:16.0625px;line-height:125%;font-family:Consolas;text-align:start;letter-spacing:0px;word-spacing:0px;text-anchor:start;fill:#000000;fill-opacity:1;stroke:none"
     x="547.84058"
     y="243.56802"
     id="text46"><tspan
       sodipodi:role="line"
       x="547.84058"
       y="243.56802"
       id="tspan46"><tspan
         dx="0"
         dy="0"
         style="font-style:normal;font-variant:normal;font-weight:400;font-size:16.0625px;font-family:Consolas;fill:#000000"
         id="tspan45">TxPending</tspan></tspan></text>
  <path
     style="fill:#000000;fill-opacity:1;fill-rule:nonzero;stroke:#000000;stroke-width:0.0400809px;stroke-linecap:butt;stroke-linejoin:round;stroke-miterlimit:4;stroke-dasharray:none;stroke-opacity:1"
     d="m 500.06998,59.30978 3.80769,-0.56113 10.62145,-1.44291 10.82186,-1.32267 11.02226,-1.16235 11.22267,-0.92186 11.30283,-0.6413 11.46315,-0.32065 11.54331,0.0401 11.62348,0.44089 11.70364,0.92187 11.70363,1.44291 11.70364,2.04413 5.85182,1.20243 5.85182,1.40283 5.85182,1.56316 5.81174,1.72348 5.81173,1.8838 5.81174,2.08421 5.77166,2.28462 5.77166,2.48502 5.69149,2.64534 5.6915,2.84575 5.65141,3.00607 5.57125,3.16639 5.57125,3.3668 5.49109,3.48705 5.41093,3.64736 5.37085,3.80769 5.29069,3.96802 5.21052,4.08825 5.17044,4.2085 5.0502,4.36883 4.97004,4.48906 4.88988,4.56923 4.76963,4.72955 4.68947,4.80972 4.56923,4.92996 4.48907,5.0502 4.32874,5.13036 4.24858,5.21052 4.08826,5.29069 3.96801,5.37084 3.84777,5.45101 3.68745,5.53117 3.5672,5.61134 3.40688,5.65141 3.24656,5.6915 3.08623,5.77165 2.92591,5.81174 2.76559,5.85182 2.60526,5.85182 2.40486,5.93198 -1.24251,0.52105 -2.40486,-5.93198 v 0.0401 l -2.56518,-5.8919 v 0.0401 l -2.76558,-5.85182 v 0 l -2.92591,-5.77165 0.0401,0.0401 -3.08624,-5.77166 v 0 l -3.24655,-5.69149 v 0.0401 l -3.40688,-5.65142 v 0 l -3.52713,-5.57125 v 0 l -3.68745,-5.49109 v 0 l -3.80769,-5.41093 v 0 l -3.96801,-5.37084 h 0.0401 l -4.12834,-5.29069 0.0401,0.0401 -4.24858,-5.21052 h 0.0401 l -4.36882,-5.09028 v 0 l -4.44899,-5.01012 h 0.0401 l -4.56923,-4.92996 v 0.0401 l -4.68947,-4.84979 0.0401,0.0401 -4.76964,-4.72955 v 0.0401 l -4.88987,-4.60931 h 0.0401 l -4.97004,-4.44899 v 0 l -5.0502,-4.32874 v 0 l -5.13036,-4.2085 h 0.0401 l -5.21052,-4.08826 v 0 l -5.29069,-3.92793 h 0.0401 l -5.37085,-3.76761 v 0 l -5.41092,-3.64737 v 0 l -5.45101,-3.48704 v 0 l -5.53117,-3.32672 h 0.0401 l -5.61134,-3.16639 h 0.0401 l -5.65141,-3.00608 h 0.0401 l -5.65141,-2.80566 v 0 l -5.6915,-2.64534 v 0 l -5.73157,-2.44494 h 0.0401 l -5.77166,-2.28462 h 0.0401 l -5.81174,-2.04413 h 0.0401 l -5.81173,-1.8838 h 0.0401 l -5.81174,-1.72348 v 0 l -5.81174,-1.56316 v 0 l -5.81174,-1.36275 v 0 l -5.81173,-1.24251 v 0 l -11.66356,-2.00405 v 0.0401 L 605.0423,55.7027 h 0.0401 l -11.66355,-0.92186 h 0.0401 l -11.62348,-0.48097 h 0.0401 l -11.54331,-0.0401 h 0.0401 l -11.46315,0.32065 h 0.0401 l -11.30283,0.6413 v 0 l -11.18259,0.92186 h 0.0401 l -11.02227,1.16235 v 0 l -10.82185,1.32267 v 0 l -10.62145,1.44291 h 0.0401 l -3.80769,0.56114 z m 2.00405,4.40891 -8.49716,-2.76559 7.33481,-5.13036 z"
     id="path46" />
  <path
     style="fill:#ffffff;fill-opacity:1;fill-rule:evenodd;stroke:none"
     d="m 635.744,173.46033 v 29.13885 h 153.51004 v -29.13885 z"
     id="path47" />
  <text
     xml:space="preserve"
     style="font-style:normal;font-variant:normal;font-weight:400;font-size:16.0625px;line-height:125%;font-family:Consolas;text-align:start;letter-spacing:0px;word-spacing:0px;text-anchor:start;fill:#000000;fill-opacity:1;stroke:none"
     x="645.42926"
     y="193.38814"
     id="text48"><tspan
       sodipodi:role="line"
       x="645.42926"
       y="193.38814"
       id="tspan48"><tspan
         dx="0"
         dy="0"
         style="font-style:normal;font-variant:normal;font-weight:400;font-size:16.0625px;font-family:Consolas;fill:#000000"
         id="tspan47">TIMEOUT </tspan></tspan></text>
  <text
     xml:space="preserve"
     style="font-style:normal;font-variant:normal;font-weight:400;font-size:16.0625px;line-height:125%;font-family:Consolas;text-align:start;letter-spacing:0px;word-spacing:0px;text-anchor:start;fill:#000000;fill-opacity:1;stroke:none"
     x="716.13208"
     y="193.38814"
     id="text50"><tspan
       sodipodi:role="line"
       x="716.13208"
       y="193.38814"
       id="tspan50"><tspan
         dx="0"
         dy="0"
         style="font-style:normal;font-variant:normal;font-weight:400;font-size:16.0625px;font-family:Consolas;fill:#000000"
         id="tspan49">expired</tspan></tspan></text>
  <path
     style="fill:#ffffff;fill-opacity:1;fill-rule:evenodd;stroke:none"
     d="m 687.84924,80.71301 v 29.13885 H 796.66902 V 80.71301 Z"
     id="path50" />
  <text
     xml:space="preserve"
     style="font-style:normal;font-variant:normal;font-weight:400;font-size:16.0625px;line-height:125%;font-family:Consolas;text-align:start;letter-spacing:0px;word-spacing:0px;text-anchor:start;fill:#000000;fill-opacity:1;stroke:none"
     x="697.54218"
     y="100.64618"
     id="text52"><tspan
       sodipodi:role="line"
       x="697.54218"
       y="100.64618"
       id="tspan52"><tspan
         dx="0"
         dy="0"
         style="font-style:normal;font-variant:normal;font-weight:400;font-size:16.0625px;font-family:Consolas;fill:#000000"
         id="tspan51">&gt;&gt;</tspan></tspan></text>
  <text
     xml:space="preserve"
     style="font-style:normal;font-variant:normal;font-weight:400;font-size:16.0625px;line-height:125%;font-family:Consolas;text-align:start;letter-spacing:0px;word-spacing:0px;text-anchor:start;fill:#000000;fill-opacity:1;stroke:none"
     x="715.1778"
     y="100.64618"
     id="text54"><tspan
       sodipodi:role="line"
       x="715.1778"
       y="100.64618"
       id="tspan54"><tspan
         dx="0"
         dy="0"
         style="font-style:normal;font-variant:normal;font-weight:400;font-size:16.0625px;font-family:Consolas;fill:#000000"
         id="tspan53">ReSend</tspan></tspan></text>
  <text
     xml:space="preserve"
     style="font-style:normal;font-variant:normal;font-weight:400;font-size:16.0625px;line-height:125%;font-family:Consolas;text-align:start;letter-spacing:0px;word-spacing:0px;text-anchor:start;fill:#000000;fill-opacity:1;stroke:none"
     x="768.245"
     y="100.64618"
     id="text56"><tspan
       sodipodi:role="line"
       x="768.245"
       y="100.64618"
       id="tspan56"><tspan
         dx="0"
         dy="0"
         style="font-style:normal;font-variant:normal;font-weight:400;font-size:16.0625px;font-family:Consolas;fill:#000000"
         id="tspan55">++</tspan></tspan></text>
  <path
     style="fill:#ffffff;fill-opacity:1;fill-rule:evenodd;stroke:none"
     d="m 743.92249,321.15864 v 48.57811 h 216.07638 v -48.57811 z"
     id="path56" />
  <text
     xml:space="preserve"
     style="font-style:normal;font-variant:normal;font-weight:400;font-size:16.0625px;line-height:125%;font-family:Consolas;text-align:start;letter-spacing:0px;word-spacing:0px;text-anchor:start;fill:#000000;fill-opacity:1;stroke:none"
     x="753.6178"
     y="341.11359"
     id="text58"><tspan
       sodipodi:role="line"
       x="753.6178"
       y="341.11359"
       id="tspan58"><tspan
         dx="0"
         dy="0"
         style="font-style:normal;font-variant:normal;font-weight:400;font-size:16.0625px;font-family:Consolas;fill:#000000"
         id="tspan57">ReSend</tspan></tspan></text>
  <text
     xml:space="preserve"
     style="font-style:normal;font-variant:normal;font-weight:400;font-size:16.0625px;line-height:125%;font-family:Consolas;text-align:start;letter-spacing:0px;word-spacing:0px;text-anchor:start;fill:#000000;fill-opacity:1;stroke:none"
     x="815.50275"
     y="341.11359"
     id="text60"><tspan
       sodipodi:role="line"
       x="815.50275"
       y="341.11359"
       id="tspan60"><tspan
         dx="0"
         dy="0"
         style="font-style:normal;font-variant:normal;font-weight:400;font-size:16.0625px;font-family:Consolas;fill:#000000"
         id="tspan59">&gt; MAXRESEND</tspan></tspan></text>
  <text
     xml:space="preserve"
     style="font-style:normal;font-variant:normal;font-weight:400;font-size:16.0625px;line-height:125%;font-family:Consolas;text-align:start;letter-spacing:0px;word-spacing:0px;text-anchor:start;fill:#000000;fill-opacity:1;stroke:none"
     x="753.6178"
     y="360.35245"
     id="text62"><tspan
       sodipodi:role="line"
       x="753.6178"
       y="360.35245"
       id="tspan62"><tspan
         dx="0"
         dy="0"
         style="font-style:normal;font-variant:normal;font-weight:400;font-size:16.0625px;font-family:Consolas;fill:#000000"
         id="tspan61">&gt;&gt;raise </tspan></tspan></text>
  <text
     xml:space="preserve"
     style="font-style:normal;font-variant:normal;font-weight:400;font-size:16.0625px;line-height:125%;font-family:Consolas;text-align:start;letter-spacing:0px;word-spacing:0px;text-anchor:start;fill:#000000;fill-opacity:1;stroke:none"
     x="824.32056"
     y="360.35245"
     id="text64"><tspan
       sodipodi:role="line"
       x="824.32056"
       y="360.35245"
       id="tspan64"><tspan
         dx="0"
         dy="0"
         style="font-style:normal;font-variant:normal;font-weight:400;font-size:16.0625px;font-family:Consolas;fill:#000000"
         id="tspan63">MAC_TX_E event</tspan></tspan></text>
  <path
     style="fill:#ffffff;fill-opacity:1;fill-rule:evenodd;stroke:none"
     d="m 472.69469,431.5015 c 0,-21.96437 40.88257,-39.76031 91.34449,-39.76031 50.46192,0 91.34449,17.79594 91.34449,39.76031 0,21.92428 -40.88257,39.72022 -91.34449,39.72022 -50.46192,0 -91.34449,-17.79594 -91.34449,-39.72022 z"
     id="path64" />
  <path
     style="fill:none;stroke:#000000;stroke-width:1.32267px;stroke-linecap:butt;stroke-linejoin:miter;stroke-miterlimit:8;stroke-dasharray:none;stroke-opacity:1"
     d="m 472.69469,431.5015 c 0,-21.96437 40.88257,-39.76031 91.34449,-39.76031 50.46192,0 91.34449,17.79594 91.34449,39.76031 0,21.92428 -40.88257,39.72022 -91.34449,39.72022 -50.46192,0 -91.34449,-17.79594 -91.34449,-39.72022"
     id="path65" />
  <text
     xml:space="preserve"
     style="font-style:normal;font-variant:normal;font-weight:400;font-size:24.0625px;line-height:125%;font-family:Consolas;text-align:start;letter-spacing:0px;word-spacing:0px;text-anchor:start;fill:#000000;fill-opacity:1;stroke:none"
     x="511.2403"
     y="439.73398"
     id="text66"><tspan
       sodipodi:role="line"
       x="511.2403"
       y="439.73398"
       id="tspan66"><tspan
         dx="0"
         dy="0"
         style="font-style:normal;font-variant:normal;font-weight:400;font-size:24.0625px;font-family:Consolas;fill:#000000"
         id="tspan65">Tx Frame</tspan></tspan></text>
  <path
     style="fill:#ffffff;fill-opacity:1;fill-rule:evenodd;stroke:none"
     d="m 217.63956,431.48146 c 0,-21.94433 40.88257,-39.74027 91.32445,-39.74027 50.44187,0 91.34448,17.79594 91.34448,39.74027 0,21.94432 -40.90261,39.74026 -91.34448,39.74026 -50.44188,0 -91.32445,-17.79594 -91.32445,-39.74026 z"
     id="path66" />
  <path
     style="fill:none;stroke:#000000;stroke-width:1.34271px;stroke-linecap:butt;stroke-linejoin:miter;stroke-miterlimit:8;stroke-dasharray:none;stroke-opacity:1"
     d="m 217.63956,431.48146 c 0,-21.94433 40.88257,-39.74027 91.32445,-39.74027 50.44187,0 91.34448,17.79594 91.34448,39.74027 0,21.94432 -40.90261,39.74026 -91.34448,39.74026 -50.44188,0 -91.32445,-17.79594 -91.32445,-39.74026"
     id="path67" />
  <text
     xml:space="preserve"
     style="font-style:normal;font-variant:normal;font-weight:400;font-size:24.0625px;line-height:125%;font-family:Consolas;text-align:start;letter-spacing:0px;word-spacing:0px;text-anchor:start;fill:#000000;fill-opacity:1;stroke:none"
     x="256.18228"
     y="428.51132"
     id="text68"><tspan
       sodipodi:role="line"
       x="256.18228"
       y="428.51132"
       id="tspan68"><tspan
         dx="0"
         dy="0"
         style="font-style:normal;font-variant:normal;font-weight:400;font-size:24.0625px;font-family:Consolas;fill:#000000"
         id="tspan67">Tx Frame</tspan></tspan></text>
  <text
     xml:space="preserve"
     style="font-style:normal;font-variant:normal;font-weight:400;font-size:18.75px;line-height:125%;font-family:Consolas;text-align:start;letter-spacing:0px;word-spacing:0px;text-anchor:start;fill:#000000;fill-opacity:1;stroke:none"
     x="283.1167"
     y="452.39957"
     id="text70"><tspan
       sodipodi:role="line"
       x="283.1167"
       y="452.39957"
       id="tspan70"><tspan
         dx="0"
         dy="0"
         style="font-style:normal;font-variant:normal;font-weight:400;font-size:18.75px;font-family:Consolas;fill:#000000"
         id="tspan69">(ACK)</tspan></tspan></text>
  <path
     style="fill:#ffffff;fill-opacity:1;fill-rule:evenodd;stroke:none"
     d="m 709.33263,431.5015 c 0,-21.96437 40.92265,-39.76031 91.34448,-39.76031 50.46192,0 91.34446,17.79594 91.34446,39.76031 0,21.92428 -40.88254,39.72022 -91.34446,39.72022 -50.42183,0 -91.34448,-17.79594 -91.34448,-39.72022 z"
     id="path70" />
  <path
     style="fill:none;stroke:#000000;stroke-width:1.32267px;stroke-linecap:butt;stroke-linejoin:miter;stroke-miterlimit:8;stroke-dasharray:none;stroke-opacity:1"
     d="m 709.33263,431.5015 c 0,-21.96437 40.92265,-39.76031 91.34448,-39.76031 50.46192,0 91.34446,17.79594 91.34446,39.76031 0,21.92428 -40.88254,39.72022 -91.34446,39.72022 -50.42183,0 -91.34448,-17.79594 -91.34448,-39.72022"
     id="path71" />
  <text
     xml:space="preserve"
     style="font-style:normal;font-variant:normal;font-weight:400;font-size:24.0625px;line-height:125%;font-family:Consolas;text-align:start;letter-spacing:0px;word-spacing:0px;text-anchor:start;fill:#000000;fill-opacity:1;stroke:none"
     x="774.33698"
     y="425.30484"
     id="text72"><tspan
       sodipodi:role="line"
       x="774.33698"
       y="425.30484"
       id="tspan72"><tspan
         dx="0"
         dy="0"
         style="font-style:normal;font-variant:normal;font-weight:400;font-size:24.0625px;font-family:Consolas;fill:#000000"
         id="tspan71">Link </tspan></tspan></text>
  <text
     xml:space="preserve"
     style="font-style:normal;font-variant:normal;font-weight:400;font-size:24.0625px;line-height:125%;font-family:Consolas;text-align:start;letter-spacing:0px;word-spacing:0px;text-anchor:start;fill:#000000;fill-opacity:1;stroke:none"
     x="767.76367"
     y="454.16312"
     id="text74"><tspan
       sodipodi:role="line"
       x="767.76367"
       y="454.16312"
       id="tspan74"><tspan
         dx="0"
         dy="0"
         style="font-style:normal;font-variant:normal;font-weight:400;font-size:24.0625px;font-family:Consolas;fill:#000000"
         id="tspan73">Error</tspan></tspan></text>
</svg>
