<?xml version="1.0" encoding="UTF-8" standalone="no"?>
<svg
   version="1.0"
   width="271.4043mm"
   height="59.159615mm"
   id="svg19"
   sodipodi:docname="project1-PSK.svg"
   inkscape:version="1.3 (0e150ed6c4, 2023-07-21)"
   xmlns:inkscape="http://www.inkscape.org/namespaces/inkscape"
   xmlns:sodipodi="http://sodipodi.sourceforge.net/DTD/sodipodi-0.dtd"
   xmlns="http://www.w3.org/2000/svg"
   xmlns:svg="http://www.w3.org/2000/svg">
  <sodipodi:namedview
     id="namedview19"
     pagecolor="#ffffff"
     bordercolor="#000000"
     borderopacity="0.25"
     inkscape:showpageshadow="2"
     inkscape:pageopacity="0.0"
     inkscape:pagecheckerboard="0"
     inkscape:deskcolor="#d1d1d1"
     inkscape:document-units="mm"
     inkscape:zoom="1.0624443"
     inkscape:cx="509.20318"
     inkscape:cy="178.3623"
     inkscape:window-width="1920"
     inkscape:window-height="1000"
     inkscape:window-x="-11"
     inkscape:window-y="-11"
     inkscape:window-maximized="1"
     inkscape:current-layer="svg19" />
  <defs
     id="defs4">
    <clipPath
       clipPathUnits="userSpaceOnUse"
       id="clipEmfPath1">
      <path
         d="m 199.66963,256.62667 h 371.5007 v 148.79227 h -371.5007 z"
         id="path1" />
    </clipPath>
    <clipPath
       clipPathUnits="userSpaceOnUse"
       id="clipEmfPath2">
      <path
         d=""
         id="path2" />
    </clipPath>
    <clipPath
       clipPathUnits="userSpaceOnUse"
       id="clipEmfPath3">
      <path
         d="M 785.39921,256.62667 H 1156.8999 V 405.41894 H 785.39921 Z"
         id="path3" />
    </clipPath>
    <clipPath
       clipPathUnits="userSpaceOnUse"
       id="clipEmfPath4">
      <path
         d="M 785.55859,256.78711 V 405.25977 H 1156.7402 V 256.78711 Z"
         id="path4" />
    </clipPath>
    <pattern
       id="EMFhbasepattern"
       patternUnits="userSpaceOnUse"
       width="6"
       height="6"
       x="0"
       y="0" />
    <clipPath
       clipPathUnits="userSpaceOnUse"
       id="clipEmfPath4-1">
      <path
         d="M 785.55859,256.78711 V 405.25977 H 1156.7402 V 256.78711 Z"
         id="path4-8" />
    </clipPath>
  </defs>
  <g
     clip-path="url(#clipEmfPath1)"
     id="g5"
     transform="translate(-130.96023,-181.66438)" />
  <path
     style="fill:none;stroke:#c00000;stroke-width:3.67067px;stroke-linecap:butt;stroke-linejoin:round;stroke-miterlimit:10;stroke-dasharray:none;stroke-opacity:1"
     clip-path="url(#clipEmfPath2)"
     d="m 201.67161,326.61334 0.73444,-4.53242 0.73445,-4.53243 0.73445,-4.4461 0.73445,-4.35976 0.73445,-4.27343 0.73444,-4.1871 0.73445,-4.05761 0.73445,-3.9281 0.73445,-3.75544 0.73445,-3.62594 0.73444,-3.41011 0.73445,-3.23745 0.73445,-2.97845 0.73445,-2.80579 0.73445,-2.5468 0.73444,-2.33096 0.77765,-2.07197 0.73445,-1.81297 0.73445,-1.55397 0.73445,-1.25182 0.73445,-0.99281 0.73445,-0.73382 0.73444,-0.43166 0.73445,-0.1295 0.73445,0.1295 0.73445,0.43166 0.73445,0.73382 0.73444,0.99281 0.73445,1.25182 0.73445,1.55397 0.73445,1.81297 0.73445,2.07197 0.73444,2.33096 0.73445,2.5468 0.77765,2.80579 0.73445,2.97845 0.73445,3.23745 0.73445,3.41011 0.73444,3.62594 0.73445,3.75544 0.73445,3.9281 0.73445,4.05761 0.73445,4.1871 0.73445,4.27343 0.73444,4.35976 0.73445,4.4461 0.73445,4.53243 0.73445,4.53242 0.73445,4.53243 0.73444,4.5756 0.73445,4.53242 0.73445,4.48926 0.77765,4.4461 0.73445,4.35976 0.73445,4.3166 0.73444,4.14394 0.73445,4.0576 0.73445,3.9281 0.73445,3.79861 0.73445,3.58277 0.73444,3.41012 0.73445,3.23744 0.73445,3.02162 0.73445,2.76263 0.73445,2.58995 0.73444,2.2878 0.73445,2.07197 0.73445,1.81297 0.73445,1.55397 0.77765,1.25182 0.73445,0.99282 0.73445,0.73382 0.73444,0.43166 0.73445,0.1295 0.73445,-0.1295 0.73445,-0.43166 0.73445,-0.73382 0.73444,-0.99282 0.73445,-1.25182 0.73445,-1.55397 0.73445,-1.81297 0.73445,-2.07197 0.73444,-2.2878 0.73445,-2.58995 0.73445,-2.76263 0.73445,-3.02162 0.73445,-3.23744 0.77765,-3.41012 0.73445,-3.58277 0.73444,-3.79861 0.73445,-3.9281 0.73445,-4.0576 0.73445,-4.14394 0.73445,-4.3166 0.73444,-4.35976 0.73445,-4.4461 0.73445,-4.48926 0.73445,-4.53242 0.73445,-4.5756 0.73444,-4.53243 0.73445,-4.53242 0.73445,-4.53243 0.73445,-4.4461 0.73445,-4.35976 0.73444,-4.27343 0.77766,-4.1871 0.73444,-4.05761 0.73445,-3.9281 0.73445,-3.75544 0.73445,-3.62594 0.73445,-3.41011 0.73444,-3.23745 0.73445,-2.97845 0.73445,-2.80579 0.73445,-2.5468 0.73445,-2.33096 0.73444,-2.07197 0.73445,-1.81297 0.73445,-1.55397 0.73445,-1.25182 0.73445,-0.99281 0.73444,-0.73382 0.73445,-0.43166 0.77765,-0.1295 0.73445,0.1295 0.73445,0.43166 0.73445,0.73382 0.73445,0.99281 0.73444,1.25182 0.73445,1.55397 0.73445,1.81297 0.73445,2.07197 0.73445,2.33096 0.73444,2.5468 0.73445,2.80579 0.73445,2.97845 0.73445,3.23745 0.73445,3.41011 0.73444,3.62594 0.73445,3.75544 0.73445,3.9281 0.77765,4.05761 0.73445,4.1871 0.73445,4.27343 0.73445,4.35976 0.73444,4.4461 0.73445,4.53243 0.73445,4.53242 0.73445,4.53243 0.73445,4.5756 0.73444,4.53242 0.73445,4.48926 0.73445,4.4461 0.73445,4.35976 0.73445,4.3166 0.73444,4.14394 0.73445,4.0576 0.73445,3.9281 0.73445,3.79861 0.77765,3.58277 0.73445,3.41012 0.73444,3.23744 0.73445,3.02162 0.73445,2.76263 0.73445,2.58995 0.73445,2.2878 0.73445,2.07197 0.73444,1.81297 0.73445,1.55397 0.73445,1.25182 0.73445,0.99282 0.73445,0.73382 0.73444,0.43166 0.73445,0.1295 0.73445,-0.1295 0.73445,-0.43166 0.73445,-0.73382 0.77765,-0.99282 0.73444,-1.25182 0.73445,-1.55397 0.73445,-1.81297 0.73445,-2.07197 0.73445,-2.2878 0.73444,-2.58995 0.73445,-2.76263 0.73445,-3.02162 0.73445,-3.23744 0.73445,-3.41012 0.73445,-3.58277 0.73444,-3.79861 0.73445,-3.9281 0.73445,-4.0576 0.73445,-4.14394 0.73445,-4.3166 0.77765,-4.35976 0.73444,-4.4461 0.73445,-4.48926 0.73445,-4.53242 0.73445,-4.5756 0.73445,-4.53243 0.73444,-4.53242 0.73445,-4.53243 0.73445,-4.4461 0.73445,-4.35976 0.73445,-4.27343 0.73444,-4.1871 0.73445,-4.05761 0.73445,-3.9281 0.73445,-3.75544 0.73445,-3.62594 0.73445,-3.41011 0.73444,-3.23745 0.77765,-2.97845 0.73445,-2.80579 0.73445,-2.5468 0.73445,-2.33096 0.73445,-2.07197 0.73444,-1.81297 0.73445,-1.55397 0.73445,-1.25182 0.73445,-0.99281 0.73445,-0.73382 0.73444,-0.43166 0.73445,-0.1295 0.73445,0.1295 0.73445,0.43166 0.73445,0.73382 0.73444,0.99281 0.73445,1.25182 0.73445,1.55397 0.77765,1.81297 0.73445,2.07197 0.73445,2.33096 0.73445,2.5468 0.73444,2.80579 0.73445,2.97845 0.73445,3.23745 0.73445,3.41011 0.73445,3.62594 0.73444,3.75544 0.73445,3.9281 0.73445,4.05761 0.73445,4.1871 0.73445,4.27343 0.73444,4.35976 0.73445,4.4461 0.73445,4.53243 0.73445,4.53242 0.77765,4.53243 0.73445,4.5756 0.73445,4.53242 0.73444,4.48926 0.73445,4.4461 0.73445,4.35976 0.73445,4.3166 0.73445,4.14394 0.73444,4.0576 0.73445,3.9281 0.73445,3.79861 0.73445,3.58277 0.73445,3.41012 0.73444,3.23744 0.73445,3.02162 0.73445,2.76263 0.73445,2.58995 0.73445,2.2878 0.77765,2.07197 0.73445,1.81297 0.73444,1.55397 0.73445,1.25182 0.73445,0.99282 0.73445,0.73382 0.73445,0.43166 0.73444,0.1295 0.73445,-0.1295 0.73445,-0.43166 0.73445,-0.73382 0.73445,-0.99282 0.73444,-1.25182 0.73445,-1.55397 0.73445,-1.81297 0.73445,-2.07197 0.73445,-2.2878 0.73444,-2.58995 0.77766,-2.76263 0.73444,-3.02162 0.73445,-3.23744 0.73445,-3.41012 0.73445,-3.58277 0.73445,-3.79861 0.73444,-3.9281 0.73445,-4.0576 0.73445,-4.14394 0.73445,-4.3166 0.73445,-4.35976 0.73444,-4.4461 0.73445,-4.48926 0.73445,-4.53242 0.73445,-4.5756 0.73445,-4.53243 0.73444,-4.53242 0.73445,-4.53243 0.77765,-4.4461 0.73445,-4.35976 0.73445,-4.27343 0.73445,-4.1871 0.73444,-4.05761 0.73445,-3.9281 0.73445,-3.75544 0.73445,-3.62594 0.73445,-3.41011 0.73445,-3.23745 0.73444,-2.97845 0.73445,-2.80579 0.73445,-2.5468 0.73445,-2.33096 0.73445,-2.07197 0.73444,-1.81297 0.73445,-1.55397 0.77765,-1.25182 0.73445,-0.99281 0.73445,-0.73382 0.73445,-0.43166 0.73444,-0.1295 0.73445,0.1295 0.73445,0.43166 0.73445,0.73382 0.73445,0.99281 0.73444,1.25182 0.73445,1.55397 0.73445,1.81297 0.73445,2.07197 0.73445,2.33096 0.73445,2.5468 0.73444,2.80579 0.73445,2.97845 0.73445,3.23745 0.77765,3.41011 0.73445,3.62594 0.73445,3.75544 0.73444,3.9281 0.73445,4.05761 0.73445,4.1871 0.73445,4.27343 0.73445,4.35976 0.73444,4.4461 0.73445,4.53243 0.73445,4.53242 0.73445,4.53243 0.73445,4.5756 0.73444,4.53242 0.73445,4.48926 0.73445,4.4461 0.73445,4.35976 0.73445,4.3166 0.77765,4.14394 0.73445,4.0576 0.73444,3.9281 0.73445,3.79861 0.73445,3.58277 0.73445,3.41012 0.73445,3.23744 0.73444,3.02162 0.73445,2.76263 0.73445,2.58995 0.73445,2.2878 0.73445,2.07197 0.73444,1.81297 0.73445,1.55397 0.73445,1.25182 0.73445,0.99282 0.73445,0.73382 0.73444,0.43166 0.77766,0.1295 0.73444,-0.1295 0.73445,-0.43166 0.73445,-0.73382 0.73445,-0.99282 0.73445,-1.25182 0.73444,-1.55397 0.73445,-1.81297 0.73445,-2.07197 0.73445,-2.2878 0.73445,-2.58995 0.73444,-2.76263 0.73445,-3.02162 0.73445,-3.23744 0.73445,-3.41012 0.73445,-3.58277 0.73444,-3.79861 0.73445,-3.9281 0.77765,-4.0576 0.73445,-4.14394 0.73445,-4.3166 0.73445,-4.35976 0.73445,-4.4461 0.73444,-4.48926 0.73445,-4.53242 0.73445,-4.5756 0.73445,-4.53243 0.73445,-4.53242 0.73444,-4.53243 0.73445,-4.4461 0.73445,-4.35976 0.73445,-4.27343 0.73445,-4.1871 0.73444,-4.05761 0.73445,-3.9281 0.73445,-3.75544 0.77765,-3.62594 0.73445,-3.41011 0.73445,-3.23745 0.73445,-2.97845 0.73444,-2.80579 0.73445,-2.5468 0.73445,-2.33096 0.73445,-2.07197 0.73445,-1.81297 0.73444,-1.55397 0.73445,-1.25182 0.73445,-0.99281 0.73445,-0.73382 0.73445,-0.43166 0.73444,-0.1295 0.73445,0.1295 0.73445,0.43166 0.73445,0.73382 0.77765,0.99281 0.73445,1.25182 0.73445,1.55397 0.73444,1.81297 0.73445,2.07197 0.73445,2.33096 0.73445,2.5468 0.73445,2.80579 0.73444,2.97845 0.73445,3.23745 0.73445,3.41011 0.73445,3.62594 0.73445,3.75544 0.73444,3.9281 0.73445,4.05761 0.73445,4.1871 0.73445,4.27343 0.77765,4.35976 0.73445,4.4461 0.73444,4.53243 0.73445,4.53242 0.73445,4.53243 0.73445,4.5756 0.73445,4.53242 0.73445,4.48926 0.73444,4.4461 0.73445,4.35976 0.73445,4.3166 0.73445,4.14394 0.73445,4.0576 0.73444,3.9281 0.73445,3.79861 0.73445,3.58277 0.73445,3.41012 0.73445,3.23744 0.77765,3.02162 0.73444,2.76263 0.73445,2.58995 0.73445,2.2878 0.73445,2.07197 0.73445,1.81297 0.73444,1.55397 0.73445,1.25182 0.73445,0.99282 0.73445,0.73382 0.73445,0.43166 0.73445,0.1295 0.73444,-0.1295 0.73445,-0.43166 0.73445,-0.73382 0.73445,-0.99282 0.73445,-1.25182 0.73444,-1.55397 0.77765,-1.81297 0.73445,-2.07197 0.73445,-2.2878 0.73445,-2.58995 0.73445,-2.76263 0.73444,-3.02162 0.73445,-3.23744 0.73445,-3.41012 0.73445,-3.58277 0.73445,-3.79861 0.73444,-3.9281 0.73445,-4.0576 0.73445,-4.14394 0.73445,-4.3166 0.73445,-4.35976 0.73444,-4.4461 0.73445,-4.48926 0.73445,-4.53242 0.77765,-4.5756"
     id="path6"
     transform="translate(-130.96023,-181.66438)" />
  <g
     id="g6"
     transform="translate(-130.96023,-181.66438)">
    <rect
       style="clip-rule:nonzero;display:inline;overflow:visible;visibility:visible;color-interpolation:sRGB;color-interpolation-filters:linearRGB;fill:#ffffff;stroke:none;stroke-dasharray:none;marker:none;enable-background:accumulate"
       width="86.671875"
       height="33.984375"
       x="0"
       y="-33.328125"
       transform="translate(338.42254,214.9925)"
       id="rect6" />
  </g>
  <text
     xml:space="preserve"
     style="font-style:normal;font-variant:normal;font-weight:400;font-size:48px;line-height:125%;font-family:'Times New Roman';text-align:start;letter-spacing:0px;word-spacing:0px;text-anchor:start;fill:#000000;fill-opacity:1;stroke:none"
     x="207.46231"
     y="33.328121"
     id="text7"><tspan
       sodipodi:role="line"
       x="207.46231"
       y="33.328121"
       id="tspan7"><tspan
         dx="0"
         dy="0"
         style="font-style:normal;font-variant:normal;font-weight:400;font-size:48px;font-family:'Times New Roman';fill:#000000"
         id="tspan6">bit 0</tspan></tspan></text>
  <path
     style="fill:none;stroke:#c00000;stroke-width:3.67981px;stroke-linecap:butt;stroke-linejoin:round;stroke-miterlimit:4;stroke-dasharray:none;stroke-opacity:1"
     clip-path="url(#clipEmfPath4)"
     d="m 1154.94,326.50304 -0.7599,-4.51976 -0.72,-4.51977 -0.76,-4.43977 -0.7199,-4.35977 -0.72,-4.27978 -0.76,-4.19978 -0.7199,-4.03979 -0.76,-3.9198 -0.7199,-3.7598 -0.76,-3.59982 -0.72,-3.43982 -0.7199,-3.19983 -0.76,-3.03984 -0.72,-2.75986 -0.7599,-2.55987 -0.72,-2.31988 -0.7599,-2.07989 -0.72,-1.7999 -0.72,-1.55992 -0.7599,-1.23994 -0.72,-0.99995 -0.7599,-0.71996 -0.72,-0.43998 -0.76,-0.11999 -0.7199,0.11999 -0.72,0.43998 -0.76,0.71996 -0.7199,0.99995 -0.76,1.23994 -0.7199,1.55992 -0.72,1.7999 -0.76,2.07989 -0.7199,2.31988 -0.76,2.55987 -0.7199,2.75986 -0.76,3.03984 -0.72,3.19983 -0.7199,3.43982 -0.76,3.59982 -0.72,3.7598 -0.7599,3.9198 -0.72,4.03979 -0.7599,4.19978 -0.72,4.27978 -0.72,4.35977 -0.7599,4.43977 -0.72,4.51977 -0.7599,4.51976 -0.72,4.55976 -0.72,4.55977 -0.7599,4.51976 -0.72,4.47977 -0.76,4.47977 -0.7199,4.35977 -0.76,4.27978 -0.7199,4.19978 -0.72,4.03979 -0.76,3.9198 -0.7199,3.7598 -0.76,3.59982 -0.72,3.43982 -0.7599,3.19983 -0.72,2.99984 -0.7199,2.79986 -0.76,2.55987 -0.72,2.31988 -0.7599,2.07989 -0.72,1.7999 -0.7199,1.55992 -0.76,1.23994 -0.72,0.99995 -0.7599,0.71996 -0.72,0.43998 -0.76,0.11999 -0.7199,-0.11999 -0.72,-0.43998 -0.7599,-0.71996 -0.72,-0.99995 -0.76,-1.23994 -0.7199,-1.55992 -0.76,-1.7999 -0.7199,-2.07989 -0.72,-2.31988 -0.76,-2.55987 -0.7199,-2.79986 -0.76,-2.99984 -0.72,-3.19983 -0.7199,-3.43982 -0.76,-3.59982 -0.7199,-3.7598 -0.76,-3.9198 -0.72,-4.03979 -0.7599,-4.19978 -0.72,-4.27978 -0.72,-4.35977 -0.7599,-4.47977 -0.72,-4.47977 -0.7599,-4.51976 -0.72,-4.55977 -0.76,-4.55976 -0.7199,-4.51976 -0.72,-4.51977 -0.7599,-4.43977 -0.72,-4.35977 -0.76,-4.27978 -0.7199,-4.19978 -0.76,-4.03979 -0.72,-3.9198 -0.7199,-3.7598 -0.76,-3.59982 -0.7199,-3.43982 -0.76,-3.19983 -0.72,-3.03984 -0.7199,-2.75986 -0.76,-2.55987 -0.7199,-2.31988 -0.76,-2.07989 -0.72,-1.7999 -0.7599,-1.55992 -0.72,-1.23994 -0.72,-0.99995 -0.7599,-0.71996 -0.72,-0.43998 -0.7599,-0.11999 -0.72,0.11999 -0.76,0.43998 -0.7199,0.71996 -0.72,0.99995 -0.7599,1.23994 -0.72,1.55992 -0.76,1.7999 -0.7199,2.07989 -0.72,2.31988 -0.76,2.55987 -0.7199,2.75986 -0.76,3.03984 -0.7199,3.19983 -0.76,3.43982 -0.72,3.59982 -0.7199,3.7598 -0.76,3.9198 -0.72,4.03979 -0.7599,4.19978 -0.72,4.27978 -0.7599,4.35977 -0.72,4.43977 -0.72,4.51977 -0.7599,4.51976 -0.72,4.55976 -0.7599,4.55977 -0.72,4.51976 -0.72,4.47977 -0.7599,4.47977 -0.72,4.35977 -0.76,4.27978 -0.7199,4.19978 -0.76,4.03979 -0.7199,3.9198 -0.72,3.7598 -0.76,3.59982 -0.7199,3.43982 -0.76,3.19983 -0.7199,2.99984 -0.76,2.79986 -0.72,2.55987 -0.7199,2.31988 -0.76,2.07989 -0.72,1.7999 -0.7599,1.55992 -0.72,1.23994 -0.7199,0.99995 -0.76,0.71996 -0.72,0.43998 -0.7599,0.11999 -0.72,-0.11999 -0.7599,-0.43998 -0.72,-0.71996 -0.72,-0.99995 -0.7599,-1.23994 -0.72,-1.55992 -0.76,-1.7999 -0.7199,-2.07989 -0.76,-2.31988 -0.7199,-2.55987 -0.72,-2.79986 -0.76,-2.99984 -0.7199,-3.19983 -0.76,-3.43982 -0.72,-3.59982 -0.7599,-3.7598 -0.72,-3.9198 -0.7199,-4.03979 -0.76,-4.19978 -0.72,-4.27978 -0.7599,-4.35977 -0.72,-4.47977 -0.7199,-4.47977 -0.76,-4.51976 -0.72,-4.55977 -0.7599,-4.55976 -0.72,-4.51976 -0.76,-4.51977 -0.7199,-4.43977 -0.72,-4.35977 -0.7599,-4.27978 -0.72,-4.19978 -0.76,-4.03979 -0.7199,-3.9198 -0.76,-3.7598 -0.7199,-3.59982 -0.72001,-3.43982 -0.75996,-3.19983 -0.71997,-3.03984 -0.75996,-2.75986 -0.71996,-2.55987 -0.71996,-2.31988 -0.75996,-2.07989 -0.71996,-1.7999 -0.75996,-1.55992 -0.71997,-1.23994 -0.75996,-0.99995 -0.71996,-0.71996 -0.71996,-0.43998 -0.75996,-0.11999 -0.71997,0.11999 -0.75996,0.43998 -0.71996,0.71996 -0.75996,0.99995 -0.71996,1.23994 -0.71996,1.55992 -0.75997,1.7999 -0.71996,2.07989 -0.75996,2.31988 -0.71996,2.55987 -0.71996,2.75986 -0.75996,3.03984 -0.71997,3.19983 -0.75996,3.43982 -0.71996,3.59982 -0.75996,3.7598 -0.71996,3.9198 -0.71997,4.03979 -0.75996,4.19978 -0.71996,4.27978 -0.75996,4.35977 -0.71996,4.43977 -0.75996,4.51977 -0.71997,4.51976 -0.71996,4.55976 -0.75996,4.55977 -0.71996,4.51976 -0.75996,4.47977 -0.71996,4.47977 -0.71997,4.35977 -0.75996,4.27978 -0.71996,4.19978 -0.75996,4.03979 -0.71996,3.9198 -0.75996,3.7598 -0.71997,3.59982 -0.71996,3.43982 -0.75996,3.19983 -0.71996,2.99984 -0.75996,2.79986 -0.71996,2.55987 -0.75997,2.31988 -0.71996,2.07989 -0.71996,1.7999 -0.75996,1.55992 -0.71996,1.23994 -0.75996,0.99995 -0.71997,0.71996 -0.75996,0.43998 -0.71996,0.11999 -0.71996,-0.11999 -0.75996,-0.43998 -0.71997,-0.71996 -0.75996,-0.99995 -0.71996,-1.23994 -0.71996,-1.55992 -0.75996,-1.7999 -0.71996,-2.07989 -0.75997,-2.31988 -0.71996,-2.55987 -0.75996,-2.79986 -0.71996,-2.99984 -0.71996,-3.19983 -0.75996,-3.43982 -0.71997,-3.59982 -0.75996,-3.7598 -0.71996,-3.9198 -0.75996,-4.03979 -0.71996,-4.19978 -0.71997,-4.27978 -0.75996,-4.35977 -0.71996,-4.47977 -0.75996,-4.47977 -0.71996,-4.51976 -0.71996,-4.55977 -0.75996,-4.55976 -0.71997,-4.51976 -0.75996,-4.51977 -0.71996,-4.43977 -0.75996,-4.35977 -0.71996,-4.27978 -0.71997,-4.19978 -0.75996,-4.03979 -0.71996,-3.9198 -0.75996,-3.7598 -0.71996,-3.59982 -0.75996,-3.43982 -0.71997,-3.19983 -0.71996,-3.03984 -0.75996,-2.75986 -0.71996,-2.55987 -0.75996,-2.31988 -0.71996,-2.07989 -0.71997,-1.7999 -0.75996,-1.55992 -0.71996,-1.23994 -0.75996,-0.99995 -0.71996,-0.71996 -0.75996,-0.43998 -0.71997,-0.11999 -0.71996,0.11999 -0.75996,0.43998 -0.71996,0.71996 -0.75996,0.99995 -0.71997,1.23994 -0.75996,1.55992 -0.71996,1.7999 -0.71996,2.07989 -0.75996,2.31988 -0.71996,2.55987 -0.75996,2.75986 -0.71997,3.03984 -0.71996,3.19983 -0.75996,3.43982 -0.71996,3.59982 -0.75996,3.7598 -0.71997,3.9198 -0.75996,4.03979 -0.71996,4.19978 -0.71996,4.27978 -0.75996,4.35977 -0.71997,4.43977 -0.75996,4.51977 -0.71996,4.51976 -0.75996,4.55976 -0.71996,4.55977 -0.71996,4.51976 -0.75996,4.47977 -0.71997,4.47977 -0.75996,4.35977 -0.71996,4.27978 -0.75996,4.19978 -0.71996,4.03979 -0.71997,3.9198 -0.75996,3.7598 -0.71996,3.59982 -0.75996,3.43982 -0.71996,3.19983 -0.71996,2.99984 -0.75997,2.79986 -0.71996,2.55987 -0.75996,2.31988 -0.71996,2.07989 -0.75996,1.7999 -0.71996,1.55992 -0.71997,1.23994 -0.75996,0.99995 -0.71996,0.71996 -0.75996,0.43998 -0.71996,0.11999 -0.75996,-0.11999 -0.71997,-0.43998 -0.71996,-0.71996 -0.75996,-0.99995 -0.71996,-1.23994 -0.75996,-1.55992 -0.71997,-1.7999 -0.71996,-2.07989 -0.75996,-2.31988 -0.71996,-2.55987 -0.75996,-2.79986 -0.71996,-2.99984 -0.75996,-3.19983 -0.71997,-3.43982 -0.71996,-3.59982 -0.75996,-3.7598 -0.71996,-3.9198 -0.75996,-4.03979 -0.71997,-4.19978 -0.75996,-4.27978 -0.71996,-4.35977 -0.71996,-4.47977 -0.75996,-4.47977 -0.71996,-4.51976 -0.75997,-4.55977 -0.71996,-4.55976 -0.71996,-4.51976 -0.75996,-4.51977 -0.71996,-4.43977 -0.75996,-4.35977 -0.71997,-4.27978 -0.75996,-4.19978 -0.71996,-4.03979 -0.71996,-3.9198 -0.75996,-3.7598 -0.71997,-3.59982 -0.75996,-3.43982 -0.71996,-3.19983 -0.75996,-3.03984 -0.71996,-2.75986 -0.71996,-2.55987 -0.75997,-2.31988 -0.71996,-2.07989 -0.75996,-1.7999 -0.71996,-1.55992 -0.71996,-1.23994 -0.75996,-0.99995 -0.71997,-0.71996 -0.75996,-0.43998 -0.71996,-0.11999 -0.75996,0.11999 -0.71996,0.43998 -0.71997,0.71996 -0.75996,0.99995 -0.71996,1.23994 -0.75996,1.55992 -0.71996,1.7999 -0.75996,2.07989 -0.71997,2.31988 -0.71996,2.55987 -0.75996,2.75986 -0.71996,3.03984 -0.75996,3.19983 -0.71996,3.43982 -0.75996,3.59982 -0.71997,3.7598 -0.71996,3.9198 -0.75996,4.03979 -0.71996,4.19978 -0.75996,4.27978 -0.71997,4.35977 -0.71996,4.43977 -0.75996,4.51977 -0.71996,4.51976 -0.75996,4.55976 -0.71996,4.55977 -0.75997,4.51976 -0.71996,4.47977 -0.71996,4.47977 -0.75996,4.35977 -0.71996,4.27978 -0.75996,4.19978 -0.71997,4.03979 -0.75996,3.9198 -0.71996,3.7598 -0.71996,3.59982 -0.75996,3.43982 -0.71997,3.19983 -0.75996,2.99984 -0.71996,2.79986 -0.71996,2.55987 -0.75996,2.31988 -0.71996,2.07989 -0.75997,1.7999 -0.71996,1.55992 -0.75996,1.23994 -0.71996,0.99995 -0.71996,0.71996 -0.75996,0.43998 -0.71997,0.11999 -0.75996,-0.11999 -0.71996,-0.43998 -0.75996,-0.71996 -0.71996,-0.99995 -0.71997,-1.23994 -0.75996,-1.55992 -0.71996,-1.7999 -0.75996,-2.07989 -0.71996,-2.31988 -0.71996,-2.55987 -0.75996,-2.79986 -0.71997,-2.99984 -0.75996,-3.19983 -0.71996,-3.43982 -0.75996,-3.59982 -0.71996,-3.7598 -0.71997,-3.9198 -0.75996,-4.03979 -0.71996,-4.19978 -0.75996,-4.27978 -0.71996,-4.35977 -0.75996,-4.47977 -0.71997,-4.47977 -0.71996,-4.51976 -0.75996,-4.55977"
     id="path7"
     transform="translate(-130.96023,-181.66438)" />
  <path
     style="fill:none;stroke:#c00000;stroke-width:3.67981px;stroke-linecap:butt;stroke-linejoin:round;stroke-miterlimit:4;stroke-dasharray:none;stroke-opacity:1"
     clip-path="url(#clipEmfPath4-1)"
     d="m 1154.94,326.50304 -0.7599,-4.51976 -0.72,-4.51977 -0.76,-4.43977 -0.7199,-4.35977 -0.72,-4.27978 -0.76,-4.19978 -0.7199,-4.03979 -0.76,-3.9198 -0.7199,-3.7598 -0.76,-3.59982 -0.72,-3.43982 -0.7199,-3.19983 -0.76,-3.03984 -0.72,-2.75986 -0.7599,-2.55987 -0.72,-2.31988 -0.7599,-2.07989 -0.72,-1.7999 -0.72,-1.55992 -0.7599,-1.23994 -0.72,-0.99995 -0.7599,-0.71996 -0.72,-0.43998 -0.76,-0.11999 -0.7199,0.11999 -0.72,0.43998 -0.76,0.71996 -0.7199,0.99995 -0.76,1.23994 -0.7199,1.55992 -0.72,1.7999 -0.76,2.07989 -0.7199,2.31988 -0.76,2.55987 -0.7199,2.75986 -0.76,3.03984 -0.72,3.19983 -0.7199,3.43982 -0.76,3.59982 -0.72,3.7598 -0.7599,3.9198 -0.72,4.03979 -0.7599,4.19978 -0.72,4.27978 -0.72,4.35977 -0.7599,4.43977 -0.72,4.51977 -0.7599,4.51976 -0.72,4.55976 -0.72,4.55977 -0.7599,4.51976 -0.72,4.47977 -0.76,4.47977 -0.7199,4.35977 -0.76,4.27978 -0.7199,4.19978 -0.72,4.03979 -0.76,3.9198 -0.7199,3.7598 -0.76,3.59982 -0.72,3.43982 -0.7599,3.19983 -0.72,2.99984 -0.7199,2.79986 -0.76,2.55987 -0.72,2.31988 -0.7599,2.07989 -0.72,1.7999 -0.7199,1.55992 -0.76,1.23994 -0.72,0.99995 -0.7599,0.71996 -0.72,0.43998 -0.76,0.11999 -0.7199,-0.11999 -0.72,-0.43998 -0.7599,-0.71996 -0.72,-0.99995 -0.76,-1.23994 -0.7199,-1.55992 -0.76,-1.7999 -0.7199,-2.07989 -0.72,-2.31988 -0.76,-2.55987 -0.7199,-2.79986 -0.76,-2.99984 -0.72,-3.19983 -0.7199,-3.43982 -0.76,-3.59982 -0.7199,-3.7598 -0.76,-3.9198 -0.72,-4.03979 -0.7599,-4.19978 -0.72,-4.27978 -0.72,-4.35977 -0.7599,-4.47977 -0.72,-4.47977 -0.7599,-4.51976 -0.72,-4.55977 -0.76,-4.55976 -0.7199,-4.51976 -0.72,-4.51977 -0.7599,-4.43977 -0.72,-4.35977 -0.76,-4.27978 -0.7199,-4.19978 -0.76,-4.03979 -0.72,-3.9198 -0.7199,-3.7598 -0.76,-3.59982 -0.7199,-3.43982 -0.76,-3.19983 -0.72,-3.03984 -0.7199,-2.75986 -0.76,-2.55987 -0.7199,-2.31988 -0.76,-2.07989 -0.72,-1.7999 -0.7599,-1.55992 -0.72,-1.23994 -0.72,-0.99995 -0.7599,-0.71996 -0.72,-0.43998 -0.7599,-0.11999 -0.72,0.11999 -0.76,0.43998 -0.7199,0.71996 -0.72,0.99995 -0.7599,1.23994 -0.72,1.55992 -0.76,1.7999 -0.7199,2.07989 -0.72,2.31988 -0.76,2.55987 -0.7199,2.75986 -0.76,3.03984 -0.7199,3.19983 -0.76,3.43982 -0.72,3.59982 -0.7199,3.7598 -0.76,3.9198 -0.72,4.03979 -0.7599,4.19978 -0.72,4.27978 -0.7599,4.35977 -0.72,4.43977 -0.72,4.51977 -0.7599,4.51976 -0.72,4.55976 -0.7599,4.55977 -0.72,4.51976 -0.72,4.47977 -0.7599,4.47977 -0.72,4.35977 -0.76,4.27978 -0.7199,4.19978 -0.76,4.03979 -0.7199,3.9198 -0.72,3.7598 -0.76,3.59982 -0.7199,3.43982 -0.76,3.19983 -0.7199,2.99984 -0.76,2.79986 -0.72,2.55987 -0.7199,2.31988 -0.76,2.07989 -0.72,1.7999 -0.7599,1.55992 -0.72,1.23994 -0.7199,0.99995 -0.76,0.71996 -0.72,0.43998 -0.7599,0.11999 -0.72,-0.11999 -0.7599,-0.43998 -0.72,-0.71996 -0.72,-0.99995 -0.7599,-1.23994 -0.72,-1.55992 -0.76,-1.7999 -0.7199,-2.07989 -0.76,-2.31988 -0.7199,-2.55987 -0.72,-2.79986 -0.76,-2.99984 -0.7199,-3.19983 -0.76,-3.43982 -0.72,-3.59982 -0.7599,-3.7598 -0.72,-3.9198 -0.7199,-4.03979 -0.76,-4.19978 -0.72,-4.27978 -0.7599,-4.35977 -0.72,-4.47977 -0.7199,-4.47977 -0.76,-4.51976 -0.72,-4.55977 -0.7599,-4.55976 -0.72,-4.51976 -0.76,-4.51977 -0.7199,-4.43977 -0.72,-4.35977 -0.7599,-4.27978 -0.72,-4.19978 -0.76,-4.03979 -0.7199,-3.9198 -0.76,-3.7598 -0.7199,-3.59982 -0.72001,-3.43982 -0.75996,-3.19983 -0.71997,-3.03984 -0.75996,-2.75986 -0.71996,-2.55987 -0.71996,-2.31988 -0.75996,-2.07989 -0.71996,-1.7999 -0.75996,-1.55992 -0.71997,-1.23994 -0.75996,-0.99995 -0.71996,-0.71996 -0.71996,-0.43998 -0.75996,-0.11999 -0.71997,0.11999 -0.75996,0.43998 -0.71996,0.71996 -0.75996,0.99995 -0.71996,1.23994 -0.71996,1.55992 -0.75997,1.7999 -0.71996,2.07989 -0.75996,2.31988 -0.71996,2.55987 -0.71996,2.75986 -0.75996,3.03984 -0.71997,3.19983 -0.75996,3.43982 -0.71996,3.59982 -0.75996,3.7598 -0.71996,3.9198 -0.71997,4.03979 -0.75996,4.19978 -0.71996,4.27978 -0.75996,4.35977 -0.71996,4.43977 -0.75996,4.51977 -0.71997,4.51976 -0.71996,4.55976 -0.75996,4.55977 -0.71996,4.51976 -0.75996,4.47977 -0.71996,4.47977 -0.71997,4.35977 -0.75996,4.27978 -0.71996,4.19978 -0.75996,4.03979 -0.71996,3.9198 -0.75996,3.7598 -0.71997,3.59982 -0.71996,3.43982 -0.75996,3.19983 -0.71996,2.99984 -0.75996,2.79986 -0.71996,2.55987 -0.75997,2.31988 -0.71996,2.07989 -0.71996,1.7999 -0.75996,1.55992 -0.71996,1.23994 -0.75996,0.99995 -0.71997,0.71996 -0.75996,0.43998 -0.71996,0.11999 -0.71996,-0.11999 -0.75996,-0.43998 -0.71997,-0.71996 -0.75996,-0.99995 -0.71996,-1.23994 -0.71996,-1.55992 -0.75996,-1.7999 -0.71996,-2.07989 -0.75997,-2.31988 -0.71996,-2.55987 -0.75996,-2.79986 -0.71996,-2.99984 -0.71996,-3.19983 -0.75996,-3.43982 -0.71997,-3.59982 -0.75996,-3.7598 -0.71996,-3.9198 -0.75996,-4.03979 -0.71996,-4.19978 -0.71997,-4.27978 -0.75996,-4.35977 -0.71996,-4.47977 -0.75996,-4.47977 -0.71996,-4.51976 -0.71996,-4.55977 -0.75996,-4.55976 -0.71997,-4.51976 -0.75996,-4.51977 -0.71996,-4.43977 -0.75996,-4.35977 -0.71996,-4.27978 -0.71997,-4.19978 -0.75996,-4.03979 -0.71996,-3.9198 -0.75996,-3.7598 -0.71996,-3.59982 -0.75996,-3.43982 -0.71997,-3.19983 -0.71996,-3.03984 -0.75996,-2.75986 -0.71996,-2.55987 -0.75996,-2.31988 -0.71996,-2.07989 -0.71997,-1.7999 -0.75996,-1.55992 -0.71996,-1.23994 -0.75996,-0.99995 -0.71996,-0.71996 -0.75996,-0.43998 -0.71997,-0.11999 -0.71996,0.11999 -0.75996,0.43998 -0.71996,0.71996 -0.75996,0.99995 -0.71997,1.23994 -0.75996,1.55992 -0.71996,1.7999 -0.71996,2.07989 -0.75996,2.31988 -0.71996,2.55987 -0.75996,2.75986 -0.71997,3.03984 -0.71996,3.19983 -0.75996,3.43982 -0.71996,3.59982 -0.75996,3.7598 -0.71997,3.9198 -0.75996,4.03979 -0.71996,4.19978 -0.71996,4.27978 -0.75996,4.35977 -0.71997,4.43977 -0.75996,4.51977 -0.71996,4.51976 -0.75996,4.55976 -0.71996,4.55977 -0.71996,4.51976 -0.75996,4.47977 -0.71997,4.47977 -0.75996,4.35977 -0.71996,4.27978 -0.75996,4.19978 -0.71996,4.03979 -0.71997,3.9198 -0.75996,3.7598 -0.71996,3.59982 -0.75996,3.43982 -0.71996,3.19983 -0.71996,2.99984 -0.75997,2.79986 -0.71996,2.55987 -0.75996,2.31988 -0.71996,2.07989 -0.75996,1.7999 -0.71996,1.55992 -0.71997,1.23994 -0.75996,0.99995 -0.71996,0.71996 -0.75996,0.43998 -0.71996,0.11999 -0.75996,-0.11999 -0.71997,-0.43998 -0.71996,-0.71996 -0.75996,-0.99995 -0.71996,-1.23994 -0.75996,-1.55992 -0.71997,-1.7999 -0.71996,-2.07989 -0.75996,-2.31988 -0.71996,-2.55987 -0.75996,-2.79986 -0.71996,-2.99984 -0.75996,-3.19983 -0.71997,-3.43982 -0.71996,-3.59982 -0.75996,-3.7598 -0.71996,-3.9198 -0.75996,-4.03979 -0.71997,-4.19978 -0.75996,-4.27978 -0.71996,-4.35977 -0.71996,-4.47977 -0.75996,-4.47977 -0.71996,-4.51976 -0.75997,-4.55977 -0.71996,-4.55976 -0.71996,-4.51976 -0.75996,-4.51977 -0.71996,-4.43977 -0.75996,-4.35977 -0.71997,-4.27978 -0.75996,-4.19978 -0.71996,-4.03979 -0.71996,-3.9198 -0.75996,-3.7598 -0.71997,-3.59982 -0.75996,-3.43982 -0.71996,-3.19983 -0.75996,-3.03984 -0.71996,-2.75986 -0.71996,-2.55987 -0.75997,-2.31988 -0.71996,-2.07989 -0.75996,-1.7999 -0.71996,-1.55992 -0.71996,-1.23994 -0.75996,-0.99995 -0.71997,-0.71996 -0.75996,-0.43998 -0.71996,-0.11999 -0.75996,0.11999 -0.71996,0.43998 -0.71997,0.71996 -0.75996,0.99995 -0.71996,1.23994 -0.75996,1.55992 -0.71996,1.7999 -0.75996,2.07989 -0.71997,2.31988 -0.71996,2.55987 -0.75996,2.75986 -0.71996,3.03984 -0.75996,3.19983 -0.71996,3.43982 -0.75996,3.59982 -0.71997,3.7598 -0.71996,3.9198 -0.75996,4.03979 -0.71996,4.19978 -0.75996,4.27978 -0.71997,4.35977 -0.71996,4.43977 -0.75996,4.51977 -0.71996,4.51976 -0.75996,4.55976 -0.71996,4.55977 -0.75997,4.51976 -0.71996,4.47977 -0.71996,4.47977 -0.75996,4.35977 -0.71996,4.27978 -0.75996,4.19978 -0.71997,4.03979 -0.75996,3.9198 -0.71996,3.7598 -0.71996,3.59982 -0.75996,3.43982 -0.71997,3.19983 -0.75996,2.99984 -0.71996,2.79986 -0.71996,2.55987 -0.75996,2.31988 -0.71996,2.07989 -0.75997,1.7999 -0.71996,1.55992 -0.75996,1.23994 -0.71996,0.99995 -0.71996,0.71996 -0.75996,0.43998 -0.71997,0.11999 -0.75996,-0.11999 -0.71996,-0.43998 -0.75996,-0.71996 -0.71996,-0.99995 -0.71997,-1.23994 -0.75996,-1.55992 -0.71996,-1.7999 -0.75996,-2.07989 -0.71996,-2.31988 -0.71996,-2.55987 -0.75996,-2.79986 -0.71997,-2.99984 -0.75996,-3.19983 -0.71996,-3.43982 -0.75996,-3.59982 -0.71996,-3.7598 -0.71997,-3.9198 -0.75996,-4.03979 -0.71996,-4.19978 -0.75996,-4.27978 -0.71996,-4.35977 -0.75996,-4.47977 -0.71997,-4.47977 -0.71996,-4.51976 -0.75996,-4.55977"
     id="path7-7"
     transform="matrix(-1,0,0,1,1213.1869,-182.79048)" />
  <g
     id="g7"
     transform="translate(-130.96023,-181.66438)">
    <rect
       style="clip-rule:nonzero;display:inline;overflow:visible;visibility:visible;color-interpolation:sRGB;color-interpolation-filters:linearRGB;fill:#ffffff;stroke:none;stroke-dasharray:none;marker:none;enable-background:accumulate"
       width="62.671875"
       height="33.984375"
       x="0"
       y="-33.328125"
       transform="translate(924.24199,214.9925)"
       id="rect7" />
  </g>
  <text
     xml:space="preserve"
     style="font-style:normal;font-variant:normal;font-weight:400;font-size:48px;line-height:125%;font-family:'Times New Roman';text-align:start;letter-spacing:0px;word-spacing:0px;text-anchor:start;fill:#000000;fill-opacity:1;stroke:none"
     x="793.28174"
     y="33.328121"
     id="text9"><tspan
       sodipodi:role="line"
       x="793.28174"
       y="33.328121"
       id="tspan9"><tspan
         dx="0"
         dy="0"
         style="font-style:normal;font-variant:normal;font-weight:400;font-size:48px;font-family:'Times New Roman';fill:#000000"
         id="tspan8">bit </tspan></tspan></text>
  <g
     id="g9"
     transform="translate(-130.96023,-181.66438)">
    <rect
       style="clip-rule:nonzero;display:inline;overflow:visible;visibility:visible;color-interpolation:sRGB;color-interpolation-filters:linearRGB;fill:#ffffff;stroke:none;stroke-dasharray:none;marker:none;enable-background:accumulate"
       width="24"
       height="32.4375"
       x="0"
       y="-32.4375"
       transform="translate(986.95874,214.9925)"
       id="rect9" />
  </g>
  <text
     xml:space="preserve"
     style="font-style:normal;font-variant:normal;font-weight:400;font-size:48px;line-height:125%;font-family:'Times New Roman';text-align:start;letter-spacing:0px;word-spacing:0px;text-anchor:start;fill:#000000;fill-opacity:1;stroke:none"
     x="855.99854"
     y="33.328121"
     id="text11"><tspan
       sodipodi:role="line"
       x="855.99854"
       y="33.328121"
       id="tspan11"><tspan
         dx="0"
         dy="0"
         style="font-style:normal;font-variant:normal;font-weight:400;font-size:48px;font-family:'Times New Roman';fill:#000000"
         id="tspan10">1</tspan></tspan></text>
  <g
     id="g11"
     transform="translate(-130.96023,-181.66438)">
    <rect
       style="clip-rule:nonzero;display:inline;overflow:visible;visibility:visible;color-interpolation:sRGB;color-interpolation-filters:linearRGB;fill:#ffffff;stroke:none;stroke-dasharray:none;marker:none;enable-background:accumulate"
       width="24"
       height="33"
       x="0"
       y="-32.4375"
       transform="translate(130.96023,353.1301)"
       id="rect11" />
  </g>
  <text
     xml:space="preserve"
     style="font-style:normal;font-variant:normal;font-weight:400;font-size:48px;line-height:125%;font-family:'Times New Roman';text-align:start;letter-spacing:0px;word-spacing:0px;text-anchor:start;fill:#000000;fill-opacity:1;stroke:none"
     x="1e-06"
     y="171.46571"
     id="text13"><tspan
       sodipodi:role="line"
       x="1e-06"
       y="171.46571"
       id="tspan13"><tspan
         dx="0"
         dy="0"
         style="font-style:normal;font-variant:normal;font-weight:400;font-size:48px;font-family:'Times New Roman';fill:#000000"
         id="tspan12">0</tspan></tspan></text>
  <g
     id="g13"
     transform="translate(-130.96023,-181.66438)">
    <rect
       style="clip-rule:nonzero;display:inline;overflow:visible;visibility:visible;color-interpolation:sRGB;color-interpolation-filters:linearRGB;fill:#ffffff;stroke:none;stroke-dasharray:none;marker:none;enable-background:accumulate"
       width="18.304688"
       height="12.539062"
       x="0"
       y="-31.710938"
       transform="translate(154.95898,353.1301)"
       id="rect13" />
  </g>
  <text
     xml:space="preserve"
     style="font-style:normal;font-variant:normal;font-weight:400;font-size:48px;line-height:125%;font-family:等线;text-align:start;letter-spacing:0px;word-spacing:0px;text-anchor:start;fill:#000000;fill-opacity:1;stroke:none"
     x="23.998751"
     y="171.46571"
     id="text15"><tspan
       sodipodi:role="line"
       x="23.998751"
       y="171.46571"
       id="tspan15"><tspan
         dx="0"
         dy="0"
         style="font-style:normal;font-variant:normal;font-weight:400;font-size:48px;font-family:等线;fill:#000000"
         id="tspan14">°</tspan></tspan></text>
  <g
     id="g15"
     transform="translate(-130.96023,-181.66438)">
    <rect
       style="clip-rule:nonzero;display:inline;overflow:visible;visibility:visible;color-interpolation:sRGB;color-interpolation-filters:linearRGB;fill:#ffffff;stroke:none;stroke-dasharray:none;marker:none;enable-background:accumulate"
       width="72"
       height="33"
       x="0"
       y="-32.4375"
       transform="translate(681.80584,353.1301)"
       id="rect15" />
  </g>
  <text
     xml:space="preserve"
     style="font-style:normal;font-variant:normal;font-weight:400;font-size:48px;line-height:125%;font-family:'Times New Roman';text-align:start;letter-spacing:0px;word-spacing:0px;text-anchor:start;fill:#000000;fill-opacity:1;stroke:none"
     x="550.84558"
     y="171.46571"
     id="text17"><tspan
       sodipodi:role="line"
       x="550.84558"
       y="171.46571"
       id="tspan17"><tspan
         dx="0"
         dy="0"
         style="font-style:normal;font-variant:normal;font-weight:400;font-size:48px;font-family:'Times New Roman';fill:#000000"
         id="tspan16">180</tspan></tspan></text>
  <g
     id="g17"
     transform="translate(-130.96023,-181.66438)">
    <rect
       style="clip-rule:nonzero;display:inline;overflow:visible;visibility:visible;color-interpolation:sRGB;color-interpolation-filters:linearRGB;fill:#ffffff;stroke:none;stroke-dasharray:none;marker:none;enable-background:accumulate"
       width="18.304688"
       height="12.539062"
       x="0"
       y="-31.710938"
       transform="translate(753.8021,353.1301)"
       id="rect17" />
  </g>
  <text
     xml:space="preserve"
     style="font-style:normal;font-variant:normal;font-weight:400;font-size:48px;line-height:125%;font-family:等线;text-align:start;letter-spacing:0px;word-spacing:0px;text-anchor:start;fill:#000000;fill-opacity:1;stroke:none"
     x="622.84186"
     y="171.46571"
     id="text19"><tspan
       sodipodi:role="line"
       x="622.84186"
       y="171.46571"
       id="tspan19"><tspan
         dx="0"
         dy="0"
         style="font-style:normal;font-variant:normal;font-weight:400;font-size:48px;font-family:等线;fill:#000000"
         id="tspan18">°</tspan></tspan></text>
</svg>
